G04 #@! TF.GenerationSoftware,KiCad,Pcbnew,no-vcs-found-e10f0c7~59~ubuntu14.04.1*
G04 #@! TF.CreationDate,2017-08-11T12:14:55+02:00*
G04 #@! TF.ProjectId,_Gauge,B347617567652E6B696361645F706362,rev?*
G04 #@! TF.SameCoordinates,Original*
G04 #@! TF.FileFunction,Copper,L1,Top,Signal*
G04 #@! TF.FilePolarity,Positive*
%FSLAX46Y46*%
G04 Gerber Fmt 4.6, Leading zero omitted, Abs format (unit mm)*
G04 Created by KiCad (PCBNEW no-vcs-found-e10f0c7~59~ubuntu14.04.1) date Fri Aug 11 12:14:55 2017*
%MOMM*%
%LPD*%
G01*
G04 APERTURE LIST*
%ADD10R,4.000000X4.000000*%
%ADD11R,5.080000X2.000000*%
%ADD12R,1.500000X0.800000*%
%ADD13R,2.600000X1.500000*%
%ADD14R,1.300000X1.000000*%
%ADD15C,1.000000*%
%ADD16C,0.300000*%
G04 APERTURE END LIST*
D10*
X76550000Y-102500000D03*
D11*
X76550000Y-107300000D03*
X76550000Y-97700000D03*
D12*
X79200000Y-86000000D03*
X79200000Y-88500000D03*
X79200000Y-91000000D03*
X72800000Y-86000000D03*
X72800000Y-88500000D03*
X72800000Y-91000000D03*
X91200000Y-86000000D03*
X91200000Y-88500000D03*
X91200000Y-91000000D03*
X84800000Y-86000000D03*
X84800000Y-88500000D03*
X84800000Y-91000000D03*
X103200000Y-86000000D03*
X103200000Y-88500000D03*
X103200000Y-91000000D03*
X96800000Y-86000000D03*
X96800000Y-88500000D03*
X96800000Y-91000000D03*
X115200000Y-86000000D03*
X115200000Y-88500000D03*
X115200000Y-91000000D03*
X108800000Y-86000000D03*
X108800000Y-88500000D03*
X108800000Y-91000000D03*
X127200000Y-86000000D03*
X127200000Y-88500000D03*
X127200000Y-91000000D03*
X120800000Y-86000000D03*
X120800000Y-88500000D03*
X120800000Y-91000000D03*
D13*
X76000000Y-68500000D03*
X76000000Y-71500000D03*
D10*
X116000000Y-128000000D03*
X84000000Y-128000000D03*
D11*
X76550000Y-110700000D03*
X76550000Y-120300000D03*
D10*
X76550000Y-115500000D03*
D11*
X88550000Y-110700000D03*
X88550000Y-120300000D03*
D10*
X88550000Y-115500000D03*
D11*
X88550000Y-97700000D03*
X88550000Y-107300000D03*
D10*
X88550000Y-102500000D03*
D11*
X100550000Y-110700000D03*
X100550000Y-120300000D03*
D10*
X100550000Y-115500000D03*
D11*
X100550000Y-97700000D03*
X100550000Y-107300000D03*
D10*
X100550000Y-102500000D03*
D11*
X112550000Y-110700000D03*
X112550000Y-120300000D03*
D10*
X112550000Y-115500000D03*
X112550000Y-102500000D03*
D11*
X112550000Y-107300000D03*
X112550000Y-97700000D03*
X124550000Y-110700000D03*
X124550000Y-120300000D03*
D10*
X124550000Y-115500000D03*
X124550000Y-102500000D03*
D11*
X124550000Y-107300000D03*
X124550000Y-97700000D03*
D13*
X88000000Y-68500000D03*
X88000000Y-71500000D03*
X100000000Y-71500000D03*
X100000000Y-68500000D03*
X112000000Y-71500000D03*
X112000000Y-68500000D03*
X124000000Y-68500000D03*
X124000000Y-71500000D03*
D14*
X74500000Y-78700000D03*
X74500000Y-76300000D03*
X77500000Y-80050000D03*
X77500000Y-82450000D03*
X77500000Y-76300000D03*
X77500000Y-78700000D03*
X86500000Y-80050000D03*
X86500000Y-82450000D03*
X74500000Y-80050000D03*
X74500000Y-82450000D03*
X86500000Y-76300000D03*
X86500000Y-78700000D03*
X89500000Y-82450000D03*
X89500000Y-80050000D03*
X89500000Y-76300000D03*
X89500000Y-78700000D03*
X98500000Y-82450000D03*
X98500000Y-80050000D03*
X98500000Y-76300000D03*
X98500000Y-78700000D03*
X101500000Y-80050000D03*
X101500000Y-82450000D03*
X101500000Y-78700000D03*
X101500000Y-76300000D03*
X110500000Y-82450000D03*
X110500000Y-80050000D03*
X110500000Y-76300000D03*
X110500000Y-78700000D03*
X113500000Y-80050000D03*
X113500000Y-82450000D03*
X113500000Y-78700000D03*
X113500000Y-76300000D03*
X122500000Y-80050000D03*
X122500000Y-82450000D03*
X122500000Y-78700000D03*
X122500000Y-76300000D03*
X125500000Y-80050000D03*
X125500000Y-82450000D03*
X125500000Y-76300000D03*
X125500000Y-78700000D03*
D15*
X121000000Y-105000000D03*
X109000000Y-105000000D03*
X97000000Y-105000000D03*
X85000000Y-105000000D03*
X73000000Y-105000000D03*
X97000000Y-122000000D03*
X109000000Y-122000000D03*
X121000000Y-122000000D03*
X85000000Y-122000000D03*
X122000000Y-68500000D03*
X110000000Y-68500000D03*
X127000000Y-122000000D03*
X115000000Y-122000000D03*
X103000000Y-122000000D03*
X91000000Y-122000000D03*
X79000000Y-122000000D03*
X98000000Y-68500000D03*
X86000000Y-68500000D03*
X74000000Y-68500000D03*
X73000000Y-122000000D03*
X124000000Y-92000000D03*
X124000000Y-109500000D03*
X124000000Y-120250000D03*
X112000000Y-120250000D03*
X112000000Y-109500000D03*
X112000000Y-92000000D03*
X100000000Y-92000000D03*
X100000000Y-109500000D03*
X100000000Y-120250000D03*
X88000000Y-120250000D03*
X76000000Y-120250000D03*
X88000000Y-109500000D03*
X88000000Y-92000000D03*
X76000000Y-92000000D03*
X76000000Y-109500000D03*
D16*
X121000000Y-105000000D02*
X122050000Y-105000000D01*
X122050000Y-105000000D02*
X124550000Y-102500000D01*
X109000000Y-105000000D02*
X110050000Y-105000000D01*
X110050000Y-105000000D02*
X112550000Y-102500000D01*
X97000000Y-105000000D02*
X98050000Y-105000000D01*
X98050000Y-105000000D02*
X100550000Y-102500000D01*
X85000000Y-105000000D02*
X86050000Y-105000000D01*
X86050000Y-105000000D02*
X88550000Y-102500000D01*
X73000000Y-105000000D02*
X74050000Y-105000000D01*
X74050000Y-105000000D02*
X76550000Y-102500000D01*
X122000000Y-68500000D02*
X124000000Y-68500000D01*
X124050000Y-102500000D02*
X123000000Y-102500000D01*
X112050000Y-102500000D02*
X111000000Y-102500000D01*
X110000000Y-68500000D02*
X112000000Y-68500000D01*
X124000000Y-71500000D02*
X124000000Y-76300000D01*
X124000000Y-76300000D02*
X124000000Y-76250000D01*
X124000000Y-76250000D02*
X124000000Y-76300000D01*
X122500000Y-76300000D02*
X124000000Y-76300000D01*
X124000000Y-76300000D02*
X125500000Y-76300000D01*
X112000000Y-76300000D02*
X113500000Y-76300000D01*
X110500000Y-76300000D02*
X112000000Y-76300000D01*
X112000000Y-76250000D02*
X112000000Y-76300000D01*
X112000000Y-76300000D02*
X112000000Y-76250000D01*
X112000000Y-71500000D02*
X112000000Y-76300000D01*
X100000000Y-71500000D02*
X100000000Y-76300000D01*
X100000000Y-76300000D02*
X100000000Y-76250000D01*
X100000000Y-76250000D02*
X100000000Y-76300000D01*
X98500000Y-76300000D02*
X100000000Y-76300000D01*
X100000000Y-76300000D02*
X101500000Y-76300000D01*
X88000000Y-76300000D02*
X89500000Y-76300000D01*
X86500000Y-76300000D02*
X88000000Y-76300000D01*
X88000000Y-76250000D02*
X88000000Y-76300000D01*
X88000000Y-76300000D02*
X88000000Y-76250000D01*
X88000000Y-71500000D02*
X88000000Y-76300000D01*
X76000000Y-71500000D02*
X76000000Y-76300000D01*
X76000000Y-76300000D02*
X76000000Y-76250000D01*
X76000000Y-76250000D02*
X76000000Y-76300000D01*
X74500000Y-76300000D02*
X76000000Y-76300000D01*
X76000000Y-76300000D02*
X77500000Y-76300000D01*
X124000000Y-82450000D02*
X124000000Y-86000000D01*
X122500000Y-82450000D02*
X124000000Y-82450000D01*
X124000000Y-82450000D02*
X125500000Y-82450000D01*
X112000000Y-82450000D02*
X113500000Y-82450000D01*
X110500000Y-82450000D02*
X112000000Y-82450000D01*
X112000000Y-82450000D02*
X112000000Y-86000000D01*
X100000000Y-82450000D02*
X100000000Y-86000000D01*
X98500000Y-82450000D02*
X100000000Y-82450000D01*
X100000000Y-82450000D02*
X101500000Y-82450000D01*
X88000000Y-82450000D02*
X89500000Y-82450000D01*
X86500000Y-82450000D02*
X88000000Y-82450000D01*
X88000000Y-82450000D02*
X88000000Y-86000000D01*
X76000000Y-82450000D02*
X76000000Y-86000000D01*
X74500000Y-82450000D02*
X76000000Y-82450000D01*
X76000000Y-82450000D02*
X77500000Y-82450000D01*
X127000000Y-123000000D02*
X127000000Y-123250000D01*
X127000000Y-121000000D02*
X127000000Y-122000000D01*
X127000000Y-122000000D02*
X127000000Y-123000000D01*
X124000000Y-124000000D02*
X116000000Y-124000000D01*
X126250000Y-124000000D02*
X124000000Y-124000000D01*
X127000000Y-123250000D02*
X126250000Y-124000000D01*
X116000000Y-124000000D02*
X116000000Y-128000000D01*
X115000000Y-124000000D02*
X115000000Y-123000000D01*
X115000000Y-122000000D02*
X115000000Y-123000000D01*
X115000000Y-122000000D02*
X115000000Y-121000000D01*
X116000000Y-124000000D02*
X115000000Y-124000000D01*
X115000000Y-124000000D02*
X112000000Y-124000000D01*
X104000000Y-124000000D02*
X112000000Y-124000000D01*
X104000000Y-124000000D02*
X103000000Y-124000000D01*
X103000000Y-124000000D02*
X103000000Y-123000000D01*
X103000000Y-122000000D02*
X103000000Y-121000000D01*
X103000000Y-122000000D02*
X103000000Y-123000000D01*
X103000000Y-124000000D02*
X99750000Y-124000000D01*
X91000000Y-124000000D02*
X91000000Y-123000000D01*
X91000000Y-122000000D02*
X91000000Y-121000000D01*
X91000000Y-122000000D02*
X91000000Y-123000000D01*
X92000000Y-124000000D02*
X91000000Y-124000000D01*
X91000000Y-124000000D02*
X88000000Y-124000000D01*
X79000000Y-123000000D02*
X80000000Y-124000000D01*
X80000000Y-124000000D02*
X88000000Y-124000000D01*
X79000000Y-122000000D02*
X79000000Y-121000000D01*
X79000000Y-122000000D02*
X79000000Y-123000000D01*
X98000000Y-68500000D02*
X100000000Y-68500000D01*
X100050000Y-102500000D02*
X99000000Y-102500000D01*
X88050000Y-102500000D02*
X87000000Y-102500000D01*
X86000000Y-68500000D02*
X88000000Y-68500000D01*
X74000000Y-68500000D02*
X76000000Y-68500000D01*
X76050000Y-102500000D02*
X75000000Y-102500000D01*
X73000000Y-122000000D02*
X79000000Y-128000000D01*
X79000000Y-128000000D02*
X84000000Y-128000000D01*
X76550000Y-115500000D02*
X73000000Y-111950000D01*
X73000000Y-109000000D02*
X73000000Y-111950000D01*
X73000000Y-109000000D02*
X74700000Y-107300000D01*
X88550000Y-115500000D02*
X85000000Y-111950000D01*
X85000000Y-109000000D02*
X86700000Y-107300000D01*
X85000000Y-109000000D02*
X85000000Y-111950000D01*
X100550000Y-115500000D02*
X97000000Y-111950000D01*
X97000000Y-109000000D02*
X97000000Y-111950000D01*
X97000000Y-109000000D02*
X98700000Y-107300000D01*
X112550000Y-115500000D02*
X109000000Y-111950000D01*
X109000000Y-109000000D02*
X110700000Y-107300000D01*
X109000000Y-109000000D02*
X109000000Y-111950000D01*
X124550000Y-115500000D02*
X121000000Y-111950000D01*
X121000000Y-109000000D02*
X121000000Y-111950000D01*
X121000000Y-109000000D02*
X122700000Y-107300000D01*
X79200000Y-86000000D02*
X76000000Y-86000000D01*
X76000000Y-86000000D02*
X72800000Y-86000000D01*
X124000000Y-88500000D02*
X124000000Y-92000000D01*
X124050000Y-109550000D02*
X124000000Y-109500000D01*
X124050000Y-109550000D02*
X124050000Y-110700000D01*
X124500000Y-88500000D02*
X124000000Y-88500000D01*
X124000000Y-88500000D02*
X120300000Y-88500000D01*
X124500000Y-88500000D02*
X126700000Y-88500000D01*
X124050000Y-120300000D02*
X125800000Y-120300000D01*
X125800000Y-120300000D02*
X126500000Y-121000000D01*
X124000000Y-120250000D02*
X124050000Y-120300000D01*
X112000000Y-120250000D02*
X112050000Y-120300000D01*
X113800000Y-120300000D02*
X114500000Y-121000000D01*
X112050000Y-120300000D02*
X113800000Y-120300000D01*
X112500000Y-88500000D02*
X114700000Y-88500000D01*
X112000000Y-88500000D02*
X108300000Y-88500000D01*
X112500000Y-88500000D02*
X112000000Y-88500000D01*
X112050000Y-109550000D02*
X112050000Y-110700000D01*
X112050000Y-109550000D02*
X112000000Y-109500000D01*
X112000000Y-88500000D02*
X112000000Y-92000000D01*
X92000000Y-124000000D02*
X99750000Y-124000000D01*
X99750000Y-124000000D02*
X100000000Y-124000000D01*
X100000000Y-88500000D02*
X100000000Y-92000000D01*
X100050000Y-109550000D02*
X100000000Y-109500000D01*
X100050000Y-109550000D02*
X100050000Y-110700000D01*
X100500000Y-88500000D02*
X100000000Y-88500000D01*
X100000000Y-88500000D02*
X96300000Y-88500000D01*
X100500000Y-88500000D02*
X102700000Y-88500000D01*
X100050000Y-120300000D02*
X101800000Y-120300000D01*
X102300000Y-120300000D02*
X103000000Y-121000000D01*
X100000000Y-120250000D02*
X100050000Y-120300000D01*
X88000000Y-120250000D02*
X88050000Y-120300000D01*
X76000000Y-120250000D02*
X76050000Y-120300000D01*
X90300000Y-120300000D02*
X91000000Y-121000000D01*
X88050000Y-120300000D02*
X89800000Y-120300000D01*
X88500000Y-88500000D02*
X90700000Y-88500000D01*
X88000000Y-88500000D02*
X84300000Y-88500000D01*
X88500000Y-88500000D02*
X88000000Y-88500000D01*
X88050000Y-109550000D02*
X88050000Y-110700000D01*
X88050000Y-109550000D02*
X88000000Y-109500000D01*
X88000000Y-88500000D02*
X88000000Y-92000000D01*
X76000000Y-88500000D02*
X76000000Y-92000000D01*
X76050000Y-109550000D02*
X76000000Y-109500000D01*
X76050000Y-109550000D02*
X76050000Y-110700000D01*
X76500000Y-88500000D02*
X76000000Y-88500000D01*
X76000000Y-88500000D02*
X72300000Y-88500000D01*
X76500000Y-88500000D02*
X78700000Y-88500000D01*
X76050000Y-120300000D02*
X77800000Y-120300000D01*
X78300000Y-120300000D02*
X79000000Y-121000000D01*
X124050000Y-107300000D02*
X122200000Y-107300000D01*
X112050000Y-107300000D02*
X110200000Y-107300000D01*
X100050000Y-107300000D02*
X98200000Y-107300000D01*
X88050000Y-107300000D02*
X86200000Y-107300000D01*
X76050000Y-107300000D02*
X74200000Y-107300000D01*
X122500000Y-78700000D02*
X122500000Y-80050000D01*
X110500000Y-78700000D02*
X110500000Y-80050000D01*
X98500000Y-78700000D02*
X98500000Y-80050000D01*
X86500000Y-78700000D02*
X86500000Y-80050000D01*
X74500000Y-78700000D02*
X74500000Y-80050000D01*
X125500000Y-78700000D02*
X125500000Y-80050000D01*
X113500000Y-78700000D02*
X113500000Y-80050000D01*
X101500000Y-78700000D02*
X101500000Y-80050000D01*
X89500000Y-78700000D02*
X89500000Y-80050000D01*
X77500000Y-78700000D02*
X77500000Y-80050000D01*
X124000000Y-86000000D02*
X127200000Y-86000000D01*
X124000000Y-86000000D02*
X120800000Y-86000000D01*
X112000000Y-86000000D02*
X108800000Y-86000000D01*
X112000000Y-86000000D02*
X115200000Y-86000000D01*
X100000000Y-86000000D02*
X103200000Y-86000000D01*
X100000000Y-86000000D02*
X96800000Y-86000000D01*
X88000000Y-86000000D02*
X84800000Y-86000000D01*
X88000000Y-86000000D02*
X91200000Y-86000000D01*
M02*
