M48
;DRILL file {KiCad no-vcs-found-e10f0c7~59~ubuntu14.04.1} date Fri Aug 11 12:14:57 2017
;FORMAT={-:-/ absolute / inch / decimal}
FMAT,2
INCH,TZ
T1C0.024
T2C0.024
%
G90
G05
M72
T1
X2.874Y-4.1339
X2.874Y-4.8031
X2.9134Y-2.6969
X2.9921Y-3.622
X2.9921Y-4.311
X2.9921Y-4.7343
X3.1102Y-4.8031
X3.3465Y-4.1339
X3.3465Y-4.8031
X3.3858Y-2.6969
X3.4646Y-3.622
X3.4646Y-4.311
X3.4646Y-4.7343
X3.5827Y-4.8031
X3.8189Y-4.1339
X3.8189Y-4.8031
X3.8583Y-2.6969
X3.937Y-3.622
X3.937Y-4.311
X3.937Y-4.7343
X4.0551Y-4.8031
X4.2913Y-4.1339
X4.2913Y-4.8031
X4.3307Y-2.6969
X4.4094Y-3.622
X4.4094Y-4.311
X4.4094Y-4.7343
X4.5276Y-4.8031
X4.7638Y-4.1339
X4.7638Y-4.8031
X4.8031Y-2.6969
X4.8819Y-3.622
X4.8819Y-4.311
X4.8819Y-4.7343
X5.Y-4.8031
T2
X5.0394Y-4.8031
X3.5433Y-4.8031
X3.5039Y-4.8031
X3.5236Y-2.5886
X3.3071Y-4.8031
X3.0315Y-4.8031
X3.4055Y-2.5886
X3.937Y-4.8031
X2.8346Y-4.8031
X2.9528Y-4.8031
X4.0157Y-4.8031
X2.9134Y-4.8031
X3.1496Y-4.8031
X3.878Y-2.5886
X4.8622Y-2.5886
X4.9016Y-2.5886
X4.4685Y-2.5886
X4.252Y-4.8031
X3.7795Y-4.8031
X3.8976Y-4.8031
X2.9331Y-2.5886
X4.4882Y-4.8031
X4.9409Y-2.5886
X4.3307Y-4.8031
X4.9213Y-4.8031
X4.3701Y-4.8031
X3.4252Y-4.8031
X4.4488Y-4.8031
X3.4843Y-2.5886
X3.0118Y-2.5886
X4.9606Y-4.8031
X3.622Y-4.8031
X3.0512Y-2.5886
X4.7244Y-4.8031
X3.9173Y-2.5886
X3.8583Y-4.8031
X4.4291Y-2.5886
X2.9724Y-2.5886
X4.8819Y-4.8031
X4.4094Y-4.8031
X4.3898Y-2.5886
X3.0709Y-4.8031
X3.9764Y-4.8031
X3.4646Y-4.8031
X3.3858Y-4.8031
X4.8031Y-4.8031
X4.5669Y-4.8031
X3.9567Y-2.5886
X3.9961Y-2.5886
X4.8425Y-4.8031
X4.8228Y-2.5886
X4.0945Y-4.8031
X3.4449Y-2.5886
X2.9921Y-4.8031
X4.3504Y-2.5886
T0
M30
