  0
SECTION
  2
HEADER
  9
$ACADVER
  1
AC1014
  9
$HANDSEED
  5
FFFF
  9
$MEASUREMENT
 70
     1
  0
ENDSEC
  0
SECTION
  2
TABLES
  0
TABLE
  2
VPORT
  5
8
330
0
100
AcDbSymbolTable
 70
     4
  0
VPORT
  5
2E
330
8
100
AcDbSymbolTableRecord
100
AcDbViewportTableRecord
  2
*ACTIVE
 70
     0
 10
0.0
 20
0.0
 11
1.0
 21
1.0
 12
210.0
 22
148.5
 13
0.0
 23
0.0
 14
10.0
 24
10.0
 15
10.0
 25
10.0
 16
0.0
 26
0.0
 36
1.0
 17
0.0
 27
0.0
 37
0.0
 40
341.0
 41
1.24
 42
50.0
 43
0.0
 44
0.0
 50
0.0
 51
0.0
 71
     0
 72
   100
 73
     1
 74
     3
 75
     0
 76
     0
 77
     0
 78
     0
  0
ENDTAB
  0
TABLE
  2
LTYPE
  5
5
330
0
100
AcDbSymbolTable
 70
     1
  0
LTYPE
  5
14
330
5
100
AcDbSymbolTableRecord
100
AcDbLinetypeTableRecord
  2
BYBLOCK
 70
     0
  3

 72
    65
 73
     0
 40
0.0
  0
LTYPE
  5
15
330
5
100
AcDbSymbolTableRecord
100
AcDbLinetypeTableRecord
  2
BYLAYER
 70
     0
  3

 72
    65
 73
     0
 40
0.0
  0
LTYPE
  5
16
330
5
100
AcDbSymbolTableRecord
100
AcDbLinetypeTableRecord
  2
CONTINUOUS
 70
     0
  3
Solid line
 72
    65
 73
     0
 40
0.0
  0
ENDTAB
  0
TABLE
  2
LAYER
  5
2
100
AcDbSymbolTable
 70
2
  0
LAYER
  5
50
100
AcDbSymbolTableRecord
100
AcDbLayerTableRecord
  2
0
 70
0
  6
CONTINUOUS
  0
LAYER
  5
51
100
AcDbSymbolTableRecord
100
AcDbLayerTableRecord
  2
Layer_1
 70
0
  6
CONTINUOUS
  0
ENDTAB
  0
TABLE
  2
STYLE
  5
3
330
0
100
AcDbSymbolTable
 70
     1
  0
STYLE
  5
11
330
3
100
AcDbSymbolTableRecord
100
AcDbTextStyleTableRecord
  2
STANDARD
 70
     0
 40
0.0
 41
1.0
 50
0.0
 71
     0
 42
2.5
  3
txt
  4

  0
ENDTAB
  0
TABLE
  2
VIEW
  5
6
330
0
100
AcDbSymbolTable
 70
     0
  0
ENDTAB
  0
TABLE
  2
UCS
  5
7
330
0
100
AcDbSymbolTable
 70
     0
  0
ENDTAB
  0
TABLE
  2
APPID
  5
9
330
0
100
AcDbSymbolTable
 70
     2
  0
APPID
  5
12
330
9
100
AcDbSymbolTableRecord
100
AcDbRegAppTableRecord
  2
ACAD
 70
     0
  0
ENDTAB
  0
TABLE
  2
DIMSTYLE
  5
A
330
0
100
AcDbSymbolTable
 70
     1
  0
DIMSTYLE
105
27
330
A
100
AcDbSymbolTableRecord
100
AcDbDimStyleTableRecord
  2
ISO-25
 70
     0
  3

  4

  5

  6

  7

 40
1.0
 41
2.5
 42
0.625
 43
3.75
 44
1.25
 45
0.0
 46
0.0
 47
0.0
 48
0.0
140
2.5
141
2.5
142
0.0
143
0.03937007874016
144
1.0
145
0.0
146
1.0
147
0.625
 71
     0
 72
     0
 73
     0
 74
     0
 75
     0
 76
     0
 77
     1
 78
     8
170
     0
171
     3
172
     1
173
     0
174
     0
175
     0
176
     0
177
     0
178
     0
270
     2
271
     2
272
     2
273
     2
274
     3
340
11
275
     0
280
     0
281
     0
282
     0
283
     0
284
     8
285
     0
286
     0
287
     3
288
     0
  0
ENDTAB
  0
TABLE
  2
BLOCK_RECORD
  5
1
330
0
100
AcDbSymbolTable
 70
     1
  0
BLOCK_RECORD
  5
1F
330
1
100
AcDbSymbolTableRecord
100
AcDbBlockTableRecord
  2
*MODEL_SPACE
  0
BLOCK_RECORD
  5
1B
330
1
100
AcDbSymbolTableRecord
100
AcDbBlockTableRecord
  2
*PAPER_SPACE
  0
ENDTAB
  0
ENDSEC
  0
SECTION
  2
BLOCKS
  0
BLOCK
  5
20
330
1F
100
AcDbEntity
  8
0
100
AcDbBlockBegin
  2
*MODEL_SPACE
 70
     0
 10
0.0
 20
0.0
 30
0.0
  3
*MODEL_SPACE
  1

  0
ENDBLK
  5
21
330
1F
100
AcDbEntity
  8
0
100
AcDbBlockEnd
  0
BLOCK
  5
1C
330
1B
100
AcDbEntity
 67
     1
  8
0
100
AcDbBlockBegin
  2
*PAPER_SPACE
  1

  0
ENDBLK
  5
1D
330
1B
100
AcDbEntity
 67
     1
  8
0
100
AcDbBlockEnd
  0
ENDSEC
  0
SECTION
  2
ENTITIES
  0
LWPOLYLINE
  5
100
100
AcDbEntity
  8
Layer_1
 62
7
100
AcDbPolyline
 90
4
 70
1
 10
54.849320
 20
227.917035
 30
0.0
 10
56.250444
 20
227.917035
 30
0.0
 10
56.250444
 20
227.216950
 30
0.0
 10
54.849320
 20
227.216950
 30
0.0
  0
LWPOLYLINE
  5
101
100
AcDbEntity
  8
Layer_1
 62
7
100
AcDbPolyline
 90
4
 70
1
 10
54.849320
 20
225.415137
 30
0.0
 10
56.250444
 20
225.415137
 30
0.0
 10
56.250444
 20
224.715053
 30
0.0
 10
54.849320
 20
224.715053
 30
0.0
  0
LWPOLYLINE
  5
102
100
AcDbEntity
  8
Layer_1
 62
7
100
AcDbPolyline
 90
4
 70
1
 10
54.849320
 20
222.915780
 30
0.0
 10
56.250444
 20
222.915780
 30
0.0
 10
56.250444
 20
222.215696
 30
0.0
 10
54.849320
 20
222.215696
 30
0.0
  0
LWPOLYLINE
  5
103
100
AcDbEntity
  8
Layer_1
 62
7
100
AcDbPolyline
 90
4
 70
1
 10
48.451067
 20
227.917035
 30
0.0
 10
49.849650
 20
227.917035
 30
0.0
 10
49.849650
 20
227.216950
 30
0.0
 10
48.451067
 20
227.216950
 30
0.0
  0
LWPOLYLINE
  5
104
100
AcDbEntity
  8
Layer_1
 62
7
100
AcDbPolyline
 90
4
 70
1
 10
48.451067
 20
225.415137
 30
0.0
 10
49.849650
 20
225.415137
 30
0.0
 10
49.849650
 20
224.715053
 30
0.0
 10
48.451067
 20
224.715053
 30
0.0
  0
LWPOLYLINE
  5
105
100
AcDbEntity
  8
Layer_1
 62
7
100
AcDbPolyline
 90
4
 70
1
 10
48.451067
 20
222.915780
 30
0.0
 10
49.849650
 20
222.915780
 30
0.0
 10
49.849650
 20
222.215696
 30
0.0
 10
48.451067
 20
222.215696
 30
0.0
  0
LWPOLYLINE
  5
106
100
AcDbEntity
  8
Layer_1
 62
7
100
AcDbPolyline
 90
4
 70
1
 10
66.850808
 20
227.917035
 30
0.0
 10
68.249391
 20
227.917035
 30
0.0
 10
68.249391
 20
227.216950
 30
0.0
 10
66.850808
 20
227.216950
 30
0.0
  0
LWPOLYLINE
  5
107
100
AcDbEntity
  8
Layer_1
 62
7
100
AcDbPolyline
 90
4
 70
1
 10
66.850808
 20
225.415137
 30
0.0
 10
68.249391
 20
225.415137
 30
0.0
 10
68.249391
 20
224.715053
 30
0.0
 10
66.850808
 20
224.715053
 30
0.0
  0
LWPOLYLINE
  5
108
100
AcDbEntity
  8
Layer_1
 62
7
100
AcDbPolyline
 90
4
 70
1
 10
66.850808
 20
222.915780
 30
0.0
 10
68.249391
 20
222.915780
 30
0.0
 10
68.249391
 20
222.215696
 30
0.0
 10
66.850808
 20
222.215696
 30
0.0
  0
LWPOLYLINE
  5
109
100
AcDbEntity
  8
Layer_1
 62
7
100
AcDbPolyline
 90
4
 70
1
 10
60.450014
 20
227.917035
 30
0.0
 10
61.851138
 20
227.917035
 30
0.0
 10
61.851138
 20
227.216950
 30
0.0
 10
60.450014
 20
227.216950
 30
0.0
  0
LWPOLYLINE
  5
10a
100
AcDbEntity
  8
Layer_1
 62
7
100
AcDbPolyline
 90
4
 70
1
 10
60.450014
 20
225.415137
 30
0.0
 10
61.851138
 20
225.415137
 30
0.0
 10
61.851138
 20
224.715053
 30
0.0
 10
60.450014
 20
224.715053
 30
0.0
  0
LWPOLYLINE
  5
10b
100
AcDbEntity
  8
Layer_1
 62
7
100
AcDbPolyline
 90
4
 70
1
 10
60.450014
 20
222.915780
 30
0.0
 10
61.851138
 20
222.915780
 30
0.0
 10
61.851138
 20
222.215696
 30
0.0
 10
60.450014
 20
222.215696
 30
0.0
  0
LWPOLYLINE
  5
10c
100
AcDbEntity
  8
Layer_1
 62
7
100
AcDbPolyline
 90
4
 70
1
 10
78.849756
 20
227.917035
 30
0.0
 10
80.250878
 20
227.917035
 30
0.0
 10
80.250878
 20
227.216950
 30
0.0
 10
78.849756
 20
227.216950
 30
0.0
  0
LWPOLYLINE
  5
10d
100
AcDbEntity
  8
Layer_1
 62
7
100
AcDbPolyline
 90
4
 70
1
 10
78.849756
 20
225.415137
 30
0.0
 10
80.250878
 20
225.415137
 30
0.0
 10
80.250878
 20
224.715053
 30
0.0
 10
78.849756
 20
224.715053
 30
0.0
  0
LWPOLYLINE
  5
10e
100
AcDbEntity
  8
Layer_1
 62
7
100
AcDbPolyline
 90
4
 70
1
 10
78.849756
 20
222.915780
 30
0.0
 10
80.250878
 20
222.915780
 30
0.0
 10
80.250878
 20
222.215696
 30
0.0
 10
78.849756
 20
222.215696
 30
0.0
  0
LWPOLYLINE
  5
10f
100
AcDbEntity
  8
Layer_1
 62
7
100
AcDbPolyline
 90
4
 70
1
 10
72.448962
 20
227.917035
 30
0.0
 10
73.850086
 20
227.917035
 30
0.0
 10
73.850086
 20
227.216950
 30
0.0
 10
72.448962
 20
227.216950
 30
0.0
  0
LWPOLYLINE
  5
110
100
AcDbEntity
  8
Layer_1
 62
7
100
AcDbPolyline
 90
4
 70
1
 10
72.448962
 20
225.415137
 30
0.0
 10
73.850086
 20
225.415137
 30
0.0
 10
73.850086
 20
224.715053
 30
0.0
 10
72.448962
 20
224.715053
 30
0.0
  0
LWPOLYLINE
  5
111
100
AcDbEntity
  8
Layer_1
 62
7
100
AcDbPolyline
 90
4
 70
1
 10
72.448962
 20
222.915780
 30
0.0
 10
73.850086
 20
222.915780
 30
0.0
 10
73.850086
 20
222.215696
 30
0.0
 10
72.448962
 20
222.215696
 30
0.0
  0
LWPOLYLINE
  5
112
100
AcDbEntity
  8
Layer_1
 62
7
100
AcDbPolyline
 90
4
 70
1
 10
90.851243
 20
227.917035
 30
0.0
 10
92.249825
 20
227.917035
 30
0.0
 10
92.249825
 20
227.216950
 30
0.0
 10
90.851243
 20
227.216950
 30
0.0
  0
LWPOLYLINE
  5
113
100
AcDbEntity
  8
Layer_1
 62
7
100
AcDbPolyline
 90
4
 70
1
 10
90.851243
 20
225.415137
 30
0.0
 10
92.249825
 20
225.415137
 30
0.0
 10
92.249825
 20
224.715053
 30
0.0
 10
90.851243
 20
224.715053
 30
0.0
  0
LWPOLYLINE
  5
114
100
AcDbEntity
  8
Layer_1
 62
7
100
AcDbPolyline
 90
4
 70
1
 10
90.851243
 20
222.915780
 30
0.0
 10
92.249825
 20
222.915780
 30
0.0
 10
92.249825
 20
222.215696
 30
0.0
 10
90.851243
 20
222.215696
 30
0.0
  0
LWPOLYLINE
  5
115
100
AcDbEntity
  8
Layer_1
 62
7
100
AcDbPolyline
 90
4
 70
1
 10
84.450448
 20
227.917035
 30
0.0
 10
85.849033
 20
227.917035
 30
0.0
 10
85.849033
 20
227.216950
 30
0.0
 10
84.450448
 20
227.216950
 30
0.0
  0
LWPOLYLINE
  5
116
100
AcDbEntity
  8
Layer_1
 62
7
100
AcDbPolyline
 90
4
 70
1
 10
84.450448
 20
225.415137
 30
0.0
 10
85.849033
 20
225.415137
 30
0.0
 10
85.849033
 20
224.715053
 30
0.0
 10
84.450448
 20
224.715053
 30
0.0
  0
LWPOLYLINE
  5
117
100
AcDbEntity
  8
Layer_1
 62
7
100
AcDbPolyline
 90
4
 70
1
 10
84.450448
 20
222.915780
 30
0.0
 10
85.849033
 20
222.915780
 30
0.0
 10
85.849033
 20
222.215696
 30
0.0
 10
84.450448
 20
222.215696
 30
0.0
  0
LWPOLYLINE
  5
118
100
AcDbEntity
  8
Layer_1
 62
7
100
AcDbPolyline
 90
4
 70
1
 10
102.850190
 20
227.917035
 30
0.0
 10
104.251310
 20
227.917035
 30
0.0
 10
104.251310
 20
227.216950
 30
0.0
 10
102.850190
 20
227.216950
 30
0.0
  0
LWPOLYLINE
  5
119
100
AcDbEntity
  8
Layer_1
 62
7
100
AcDbPolyline
 90
4
 70
1
 10
102.850190
 20
225.415137
 30
0.0
 10
104.251310
 20
225.415137
 30
0.0
 10
104.251310
 20
224.715053
 30
0.0
 10
102.850190
 20
224.715053
 30
0.0
  0
LWPOLYLINE
  5
11a
100
AcDbEntity
  8
Layer_1
 62
7
100
AcDbPolyline
 90
4
 70
1
 10
102.850190
 20
222.915780
 30
0.0
 10
104.251310
 20
222.915780
 30
0.0
 10
104.251310
 20
222.215696
 30
0.0
 10
102.850190
 20
222.215696
 30
0.0
  0
LWPOLYLINE
  5
11b
100
AcDbEntity
  8
Layer_1
 62
7
100
AcDbPolyline
 90
4
 70
1
 10
96.449398
 20
227.917035
 30
0.0
 10
97.850520
 20
227.917035
 30
0.0
 10
97.850520
 20
227.216950
 30
0.0
 10
96.449398
 20
227.216950
 30
0.0
  0
LWPOLYLINE
  5
11c
100
AcDbEntity
  8
Layer_1
 62
7
100
AcDbPolyline
 90
4
 70
1
 10
96.449398
 20
225.415137
 30
0.0
 10
97.850520
 20
225.415137
 30
0.0
 10
97.850520
 20
224.715053
 30
0.0
 10
96.449398
 20
224.715053
 30
0.0
  0
LWPOLYLINE
  5
11d
100
AcDbEntity
  8
Layer_1
 62
7
100
AcDbPolyline
 90
4
 70
1
 10
96.449398
 20
222.915780
 30
0.0
 10
97.850520
 20
222.915780
 30
0.0
 10
97.850520
 20
222.215696
 30
0.0
 10
96.449398
 20
222.215696
 30
0.0
  0
LWPOLYLINE
  5
11e
100
AcDbEntity
  8
Layer_1
 62
7
100
AcDbPolyline
 90
4
 70
1
 10
51.100284
 20
245.765596
 30
0.0
 10
53.601226
 20
245.765596
 30
0.0
 10
53.601226
 20
244.367013
 30
0.0
 10
51.100284
 20
244.367013
 30
0.0
  0
LWPOLYLINE
  5
11f
100
AcDbEntity
  8
Layer_1
 62
7
100
AcDbPolyline
 90
4
 70
1
 10
51.100284
 20
242.765859
 30
0.0
 10
53.601226
 20
242.765859
 30
0.0
 10
53.601226
 20
241.367276
 30
0.0
 10
51.100284
 20
241.367276
 30
0.0
  0
LWPOLYLINE
  5
120
100
AcDbEntity
  8
Layer_1
 62
7
100
AcDbPolyline
 90
4
 70
1
 10
90.399123
 20
187.515840
 30
0.0
 10
94.299605
 20
187.515840
 30
0.0
 10
94.299605
 20
183.615360
 30
0.0
 10
90.399123
 20
183.615360
 30
0.0
  0
LWPOLYLINE
  5
121
100
AcDbEntity
  8
Layer_1
 62
7
100
AcDbPolyline
 90
4
 70
1
 10
58.400236
 20
187.515840
 30
0.0
 10
62.300717
 20
187.515840
 30
0.0
 10
62.300717
 20
183.615360
 30
0.0
 10
58.400236
 20
183.615360
 30
0.0
  0
LWPOLYLINE
  5
122
100
AcDbEntity
  8
Layer_1
 62
7
100
AcDbPolyline
 90
4
 70
1
 10
63.099232
 20
245.765596
 30
0.0
 10
65.600174
 20
245.765596
 30
0.0
 10
65.600174
 20
244.367013
 30
0.0
 10
63.099232
 20
244.367013
 30
0.0
  0
LWPOLYLINE
  5
123
100
AcDbEntity
  8
Layer_1
 62
7
100
AcDbPolyline
 90
4
 70
1
 10
63.099232
 20
242.765859
 30
0.0
 10
65.600174
 20
242.765859
 30
0.0
 10
65.600174
 20
241.367276
 30
0.0
 10
63.099232
 20
241.367276
 30
0.0
  0
LWPOLYLINE
  5
124
100
AcDbEntity
  8
Layer_1
 62
7
100
AcDbPolyline
 90
4
 70
1
 10
75.100719
 20
242.765859
 30
0.0
 10
77.599121
 20
242.765859
 30
0.0
 10
77.599121
 20
241.367276
 30
0.0
 10
75.100719
 20
241.367276
 30
0.0
  0
LWPOLYLINE
  5
125
100
AcDbEntity
  8
Layer_1
 62
7
100
AcDbPolyline
 90
4
 70
1
 10
75.100719
 20
245.765596
 30
0.0
 10
77.599121
 20
245.765596
 30
0.0
 10
77.599121
 20
244.367013
 30
0.0
 10
75.100719
 20
244.367013
 30
0.0
  0
LWPOLYLINE
  5
126
100
AcDbEntity
  8
Layer_1
 62
7
100
AcDbPolyline
 90
4
 70
1
 10
87.099666
 20
242.765859
 30
0.0
 10
89.600608
 20
242.765859
 30
0.0
 10
89.600608
 20
241.367276
 30
0.0
 10
87.099666
 20
241.367276
 30
0.0
  0
LWPOLYLINE
  5
127
100
AcDbEntity
  8
Layer_1
 62
7
100
AcDbPolyline
 90
4
 70
1
 10
87.099666
 20
245.765596
 30
0.0
 10
89.600608
 20
245.765596
 30
0.0
 10
89.600608
 20
244.367013
 30
0.0
 10
87.099666
 20
244.367013
 30
0.0
  0
LWPOLYLINE
  5
128
100
AcDbEntity
  8
Layer_1
 62
7
100
AcDbPolyline
 90
4
 70
1
 10
99.101155
 20
245.765596
 30
0.0
 10
101.599560
 20
245.765596
 30
0.0
 10
101.599560
 20
244.367013
 30
0.0
 10
99.101155
 20
244.367013
 30
0.0
  0
LWPOLYLINE
  5
129
100
AcDbEntity
  8
Layer_1
 62
7
100
AcDbPolyline
 90
4
 70
1
 10
99.101155
 20
242.765859
 30
0.0
 10
101.599560
 20
242.765859
 30
0.0
 10
101.599560
 20
241.367276
 30
0.0
 10
99.101155
 20
241.367276
 30
0.0
  0
LWPOLYLINE
  5
12a
100
AcDbEntity
  8
Layer_1
 62
7
100
AcDbPolyline
 90
4
 70
1
 10
50.249385
 20
235.316047
 30
0.0
 10
51.449849
 20
235.316047
 30
0.0
 10
51.449849
 20
234.415303
 30
0.0
 10
50.249385
 20
234.415303
 30
0.0
  0
LWPOLYLINE
  5
12b
100
AcDbEntity
  8
Layer_1
 62
7
100
AcDbPolyline
 90
4
 70
1
 10
50.249385
 20
237.716344
 30
0.0
 10
51.449849
 20
237.716344
 30
0.0
 10
51.449849
 20
236.815600
 30
0.0
 10
50.249385
 20
236.815600
 30
0.0
  0
LWPOLYLINE
  5
12c
100
AcDbEntity
  8
Layer_1
 62
7
100
AcDbPolyline
 90
4
 70
1
 10
53.249122
 20
233.967308
 30
0.0
 10
54.449586
 20
233.967308
 30
0.0
 10
54.449586
 20
233.066564
 30
0.0
 10
53.249122
 20
233.066564
 30
0.0
  0
LWPOLYLINE
  5
12d
100
AcDbEntity
  8
Layer_1
 62
7
100
AcDbPolyline
 90
4
 70
1
 10
53.249122
 20
231.567011
 30
0.0
 10
54.449586
 20
231.567011
 30
0.0
 10
54.449586
 20
230.666267
 30
0.0
 10
53.249122
 20
230.666267
 30
0.0
  0
LWPOLYLINE
  5
12e
100
AcDbEntity
  8
Layer_1
 62
7
100
AcDbPolyline
 90
4
 70
1
 10
53.249122
 20
237.716344
 30
0.0
 10
54.449586
 20
237.716344
 30
0.0
 10
54.449586
 20
236.815600
 30
0.0
 10
53.249122
 20
236.815600
 30
0.0
  0
LWPOLYLINE
  5
12f
100
AcDbEntity
  8
Layer_1
 62
7
100
AcDbPolyline
 90
4
 70
1
 10
53.249122
 20
235.316047
 30
0.0
 10
54.449586
 20
235.316047
 30
0.0
 10
54.449586
 20
234.415303
 30
0.0
 10
53.249122
 20
234.415303
 30
0.0
  0
LWPOLYLINE
  5
130
100
AcDbEntity
  8
Layer_1
 62
7
100
AcDbPolyline
 90
4
 70
1
 10
62.250873
 20
233.967308
 30
0.0
 10
63.451336
 20
233.967308
 30
0.0
 10
63.451336
 20
233.066564
 30
0.0
 10
62.250873
 20
233.066564
 30
0.0
  0
LWPOLYLINE
  5
131
100
AcDbEntity
  8
Layer_1
 62
7
100
AcDbPolyline
 90
4
 70
1
 10
62.250873
 20
231.567011
 30
0.0
 10
63.451336
 20
231.567011
 30
0.0
 10
63.451336
 20
230.666267
 30
0.0
 10
62.250873
 20
230.666267
 30
0.0
  0
LWPOLYLINE
  5
132
100
AcDbEntity
  8
Layer_1
 62
7
100
AcDbPolyline
 90
4
 70
1
 10
50.249385
 20
233.967308
 30
0.0
 10
51.449849
 20
233.967308
 30
0.0
 10
51.449849
 20
233.066564
 30
0.0
 10
50.249385
 20
233.066564
 30
0.0
  0
LWPOLYLINE
  5
133
100
AcDbEntity
  8
Layer_1
 62
7
100
AcDbPolyline
 90
4
 70
1
 10
50.249385
 20
231.567011
 30
0.0
 10
51.449849
 20
231.567011
 30
0.0
 10
51.449849
 20
230.666267
 30
0.0
 10
50.249385
 20
230.666267
 30
0.0
  0
LWPOLYLINE
  5
134
100
AcDbEntity
  8
Layer_1
 62
7
100
AcDbPolyline
 90
4
 70
1
 10
62.250873
 20
237.716344
 30
0.0
 10
63.451336
 20
237.716344
 30
0.0
 10
63.451336
 20
236.815600
 30
0.0
 10
62.250873
 20
236.815600
 30
0.0
  0
LWPOLYLINE
  5
135
100
AcDbEntity
  8
Layer_1
 62
7
100
AcDbPolyline
 90
4
 70
1
 10
62.250873
 20
235.316047
 30
0.0
 10
63.451336
 20
235.316047
 30
0.0
 10
63.451336
 20
234.415303
 30
0.0
 10
62.250873
 20
234.415303
 30
0.0
  0
LWPOLYLINE
  5
136
100
AcDbEntity
  8
Layer_1
 62
7
100
AcDbPolyline
 90
4
 70
1
 10
65.250609
 20
231.567011
 30
0.0
 10
66.451073
 20
231.567011
 30
0.0
 10
66.451073
 20
230.666267
 30
0.0
 10
65.250609
 20
230.666267
 30
0.0
  0
LWPOLYLINE
  5
137
100
AcDbEntity
  8
Layer_1
 62
7
100
AcDbPolyline
 90
4
 70
1
 10
65.250609
 20
233.967308
 30
0.0
 10
66.451073
 20
233.967308
 30
0.0
 10
66.451073
 20
233.066564
 30
0.0
 10
65.250609
 20
233.066564
 30
0.0
  0
LWPOLYLINE
  5
138
100
AcDbEntity
  8
Layer_1
 62
7
100
AcDbPolyline
 90
4
 70
1
 10
65.250609
 20
237.716344
 30
0.0
 10
66.451073
 20
237.716344
 30
0.0
 10
66.451073
 20
236.815600
 30
0.0
 10
65.250609
 20
236.815600
 30
0.0
  0
LWPOLYLINE
  5
139
100
AcDbEntity
  8
Layer_1
 62
7
100
AcDbPolyline
 90
4
 70
1
 10
65.250609
 20
235.316047
 30
0.0
 10
66.451073
 20
235.316047
 30
0.0
 10
66.451073
 20
234.415303
 30
0.0
 10
65.250609
 20
234.415303
 30
0.0
  0
LWPOLYLINE
  5
13a
100
AcDbEntity
  8
Layer_1
 62
7
100
AcDbPolyline
 90
4
 70
1
 10
74.249820
 20
231.567011
 30
0.0
 10
75.450284
 20
231.567011
 30
0.0
 10
75.450284
 20
230.666267
 30
0.0
 10
74.249820
 20
230.666267
 30
0.0
  0
LWPOLYLINE
  5
13b
100
AcDbEntity
  8
Layer_1
 62
7
100
AcDbPolyline
 90
4
 70
1
 10
74.249820
 20
233.967308
 30
0.0
 10
75.450284
 20
233.967308
 30
0.0
 10
75.450284
 20
233.066564
 30
0.0
 10
74.249820
 20
233.066564
 30
0.0
  0
LWPOLYLINE
  5
13c
100
AcDbEntity
  8
Layer_1
 62
7
100
AcDbPolyline
 90
4
 70
1
 10
74.249820
 20
237.716344
 30
0.0
 10
75.450284
 20
237.716344
 30
0.0
 10
75.450284
 20
236.815600
 30
0.0
 10
74.249820
 20
236.815600
 30
0.0
  0
LWPOLYLINE
  5
13d
100
AcDbEntity
  8
Layer_1
 62
7
100
AcDbPolyline
 90
4
 70
1
 10
74.249820
 20
235.316047
 30
0.0
 10
75.450284
 20
235.316047
 30
0.0
 10
75.450284
 20
234.415303
 30
0.0
 10
74.249820
 20
234.415303
 30
0.0
  0
LWPOLYLINE
  5
13e
100
AcDbEntity
  8
Layer_1
 62
7
100
AcDbPolyline
 90
4
 70
1
 10
77.249556
 20
233.967308
 30
0.0
 10
78.450021
 20
233.967308
 30
0.0
 10
78.450021
 20
233.066564
 30
0.0
 10
77.249556
 20
233.066564
 30
0.0
  0
LWPOLYLINE
  5
13f
100
AcDbEntity
  8
Layer_1
 62
7
100
AcDbPolyline
 90
4
 70
1
 10
77.249556
 20
231.567011
 30
0.0
 10
78.450021
 20
231.567011
 30
0.0
 10
78.450021
 20
230.666267
 30
0.0
 10
77.249556
 20
230.666267
 30
0.0
  0
LWPOLYLINE
  5
140
100
AcDbEntity
  8
Layer_1
 62
7
100
AcDbPolyline
 90
4
 70
1
 10
77.249556
 20
235.316047
 30
0.0
 10
78.450021
 20
235.316047
 30
0.0
 10
78.450021
 20
234.415303
 30
0.0
 10
77.249556
 20
234.415303
 30
0.0
  0
LWPOLYLINE
  5
141
100
AcDbEntity
  8
Layer_1
 62
7
100
AcDbPolyline
 90
4
 70
1
 10
77.249556
 20
237.716344
 30
0.0
 10
78.450021
 20
237.716344
 30
0.0
 10
78.450021
 20
236.815600
 30
0.0
 10
77.249556
 20
236.815600
 30
0.0
  0
LWPOLYLINE
  5
142
100
AcDbEntity
  8
Layer_1
 62
7
100
AcDbPolyline
 90
4
 70
1
 10
86.251308
 20
231.567011
 30
0.0
 10
87.449230
 20
231.567011
 30
0.0
 10
87.449230
 20
230.666267
 30
0.0
 10
86.251308
 20
230.666267
 30
0.0
  0
LWPOLYLINE
  5
143
100
AcDbEntity
  8
Layer_1
 62
7
100
AcDbPolyline
 90
4
 70
1
 10
86.251308
 20
233.967308
 30
0.0
 10
87.449230
 20
233.967308
 30
0.0
 10
87.449230
 20
233.066564
 30
0.0
 10
86.251308
 20
233.066564
 30
0.0
  0
LWPOLYLINE
  5
144
100
AcDbEntity
  8
Layer_1
 62
7
100
AcDbPolyline
 90
4
 70
1
 10
86.251308
 20
237.716344
 30
0.0
 10
87.449230
 20
237.716344
 30
0.0
 10
87.449230
 20
236.815600
 30
0.0
 10
86.251308
 20
236.815600
 30
0.0
  0
LWPOLYLINE
  5
145
100
AcDbEntity
  8
Layer_1
 62
7
100
AcDbPolyline
 90
4
 70
1
 10
86.251308
 20
235.316047
 30
0.0
 10
87.449230
 20
235.316047
 30
0.0
 10
87.449230
 20
234.415303
 30
0.0
 10
86.251308
 20
234.415303
 30
0.0
  0
LWPOLYLINE
  5
146
100
AcDbEntity
  8
Layer_1
 62
7
100
AcDbPolyline
 90
4
 70
1
 10
89.251046
 20
233.967308
 30
0.0
 10
90.448968
 20
233.967308
 30
0.0
 10
90.448968
 20
233.066564
 30
0.0
 10
89.251046
 20
233.066564
 30
0.0
  0
LWPOLYLINE
  5
147
100
AcDbEntity
  8
Layer_1
 62
7
100
AcDbPolyline
 90
4
 70
1
 10
89.251046
 20
231.567011
 30
0.0
 10
90.448968
 20
231.567011
 30
0.0
 10
90.448968
 20
230.666267
 30
0.0
 10
89.251046
 20
230.666267
 30
0.0
  0
LWPOLYLINE
  5
148
100
AcDbEntity
  8
Layer_1
 62
7
100
AcDbPolyline
 90
4
 70
1
 10
89.251046
 20
235.316047
 30
0.0
 10
90.448968
 20
235.316047
 30
0.0
 10
90.448968
 20
234.415303
 30
0.0
 10
89.251046
 20
234.415303
 30
0.0
  0
LWPOLYLINE
  5
149
100
AcDbEntity
  8
Layer_1
 62
7
100
AcDbPolyline
 90
4
 70
1
 10
89.251046
 20
237.716344
 30
0.0
 10
90.448968
 20
237.716344
 30
0.0
 10
90.448968
 20
236.815600
 30
0.0
 10
89.251046
 20
236.815600
 30
0.0
  0
LWPOLYLINE
  5
14a
100
AcDbEntity
  8
Layer_1
 62
7
100
AcDbPolyline
 90
4
 70
1
 10
98.250255
 20
233.967308
 30
0.0
 10
99.450720
 20
233.967308
 30
0.0
 10
99.450720
 20
233.066564
 30
0.0
 10
98.250255
 20
233.066564
 30
0.0
  0
LWPOLYLINE
  5
14b
100
AcDbEntity
  8
Layer_1
 62
7
100
AcDbPolyline
 90
4
 70
1
 10
98.250255
 20
231.567011
 30
0.0
 10
99.450720
 20
231.567011
 30
0.0
 10
99.450720
 20
230.666267
 30
0.0
 10
98.250255
 20
230.666267
 30
0.0
  0
LWPOLYLINE
  5
14c
100
AcDbEntity
  8
Layer_1
 62
7
100
AcDbPolyline
 90
4
 70
1
 10
98.250255
 20
235.316047
 30
0.0
 10
99.450720
 20
235.316047
 30
0.0
 10
99.450720
 20
234.415303
 30
0.0
 10
98.250255
 20
234.415303
 30
0.0
  0
LWPOLYLINE
  5
14d
100
AcDbEntity
  8
Layer_1
 62
7
100
AcDbPolyline
 90
4
 70
1
 10
98.250255
 20
237.716344
 30
0.0
 10
99.450720
 20
237.716344
 30
0.0
 10
99.450720
 20
236.815600
 30
0.0
 10
98.250255
 20
236.815600
 30
0.0
  0
LWPOLYLINE
  5
14e
100
AcDbEntity
  8
Layer_1
 62
7
100
AcDbPolyline
 90
4
 70
1
 10
101.249990
 20
233.967308
 30
0.0
 10
102.450450
 20
233.967308
 30
0.0
 10
102.450450
 20
233.066564
 30
0.0
 10
101.249990
 20
233.066564
 30
0.0
  0
LWPOLYLINE
  5
14f
100
AcDbEntity
  8
Layer_1
 62
7
100
AcDbPolyline
 90
4
 70
1
 10
101.249990
 20
231.567011
 30
0.0
 10
102.450450
 20
231.567011
 30
0.0
 10
102.450450
 20
230.666267
 30
0.0
 10
101.249990
 20
230.666267
 30
0.0
  0
LWPOLYLINE
  5
150
100
AcDbEntity
  8
Layer_1
 62
7
100
AcDbPolyline
 90
4
 70
1
 10
101.249990
 20
237.716344
 30
0.0
 10
102.450450
 20
237.716344
 30
0.0
 10
102.450450
 20
236.815600
 30
0.0
 10
101.249990
 20
236.815600
 30
0.0
  0
LWPOLYLINE
  5
151
100
AcDbEntity
  8
Layer_1
 62
7
100
AcDbPolyline
 90
4
 70
1
 10
101.249990
 20
235.316047
 30
0.0
 10
102.450450
 20
235.316047
 30
0.0
 10
102.450450
 20
234.415303
 30
0.0
 10
101.249990
 20
234.415303
 30
0.0
  0
LWPOLYLINE
  5
152
100
AcDbEntity
  8
Layer_1
 62
1
100
AcDbPolyline
 90
4
 70
1
 10
25.123335
 20
274.871117
 30
0.0
 10
125.023337
 20
274.871117
 30
0.0
 10
125.023337
 20
134.971107
 30
0.0
 10
25.123335
 20
134.971107
 30
0.0
  0
ENDSEC
  0
SECTION
  2
OBJECTS
  0
DICTIONARY
  5
C
330
0
100
AcDbDictionary
  3
ACAD_GROUP
350
D
  3
ACAD_MLINESTYLE
350
17
  0
DICTIONARY
  5
D
330
C
100
AcDbDictionary
  0
DICTIONARY
  5
1A
330
C
100
AcDbDictionary
  0
DICTIONARY
  5
17
330
C
100
AcDbDictionary
  3
STANDARD
350
18
  0
DICTIONARY
  5
19
330
C
100
AcDbDictionary
  0
ENDSEC
  0
EOF
