<?xml version="1.0" standalone="no"?>
 <!DOCTYPE svg PUBLIC "-//W3C//DTD SVG 1.1//EN" 
 "http://www.w3.org/Graphics/SVG/1.1/DTD/svg11.dtd"> 
<svg xmlns="http://www.w3.org/2000/svg" version="1.1" 
    width="29.7002cm" height="21.0007cm" viewBox="0 0 116930 82680 ">
<title>SVG Picture created as γGauge-brd.svg date 2017/08/17 16:25:39 </title>
  <desc>Picture generated by PCBNEW </desc>
<g style="fill:#000000; fill-opacity:1;stroke:#000000; stroke-opacity:1;
stroke-linecap:round; stroke-linejoin:round; "
 transform="translate(0 0) scale(1 1)">
</g>
<g style="fill:#000000; fill-opacity:0.0; 
stroke:#000000; stroke-width:-0.000393701; stroke-opacity:1; 
stroke-linecap:round; stroke-linejoin:round;">
</g>
<g style="fill:#000000; fill-opacity:0.0; 
stroke:#000000; stroke-width:39.3701; stroke-opacity:1; 
stroke-linecap:round; stroke-linejoin:round;">
</g>
<g style="fill:#000000; fill-opacity:0.0; 
stroke:#000000; stroke-width:59.0551; stroke-opacity:1; 
stroke-linecap:round; stroke-linejoin:round;">
<rect x="69685.9" y="65357.2" width="42519.7" height="12598.4" rx="0" />
</g>
<g style="fill:#000000; fill-opacity:0.0; 
stroke:#000000; stroke-width:39.3701; stroke-opacity:1; 
stroke-linecap:round; stroke-linejoin:round;">
</g>
<g style="fill:#000000; fill-opacity:0.0; 
stroke:#000000; stroke-width:59.0551; stroke-opacity:1; 
stroke-linecap:round; stroke-linejoin:round;">
<rect x="3937.01" y="3937.01" width="109056" height="74806" rx="0" />
</g>
<g style="fill:#000000; fill-opacity:0.0; 
stroke:#000000; stroke-width:39.3701; stroke-opacity:1; 
stroke-linecap:round; stroke-linejoin:round;">
</g>
<g style="fill:#000000; fill-opacity:0.0; 
stroke:#000000; stroke-width:59.0551; stroke-opacity:1; 
stroke-linecap:round; stroke-linejoin:round;">
<rect x="4724.41" y="4724.41" width="107481" height="73231.2" rx="0" />
</g>
<g style="fill:#000000; fill-opacity:0.0; 
stroke:#000000; stroke-width:39.3701; stroke-opacity:1; 
stroke-linecap:round; stroke-linejoin:round;">
</g>
<g style="fill:#000000; fill-opacity:0.0; 
stroke:#000000; stroke-width:59.0551; stroke-opacity:1; 
stroke-linecap:round; stroke-linejoin:round;">
<path d="M23622 4724
L23622 3937
" />
</g>
<g style="fill:#000000; fill-opacity:0.0; 
stroke:#000000; stroke-width:39.3701; stroke-opacity:1; 
stroke-linecap:round; stroke-linejoin:round;">
</g>
<g style="fill:#000000; fill-opacity:0.0; 
stroke:#000000; stroke-width:59.0551; stroke-opacity:1; 
stroke-linecap:round; stroke-linejoin:round;">
<path d="M43307 4724
L43307 3937
" />
</g>
<g style="fill:#000000; fill-opacity:0.0; 
stroke:#000000; stroke-width:39.3701; stroke-opacity:1; 
stroke-linecap:round; stroke-linejoin:round;">
</g>
<g style="fill:#000000; fill-opacity:0.0; 
stroke:#000000; stroke-width:59.0551; stroke-opacity:1; 
stroke-linecap:round; stroke-linejoin:round;">
<path d="M62992 4724
L62992 3937
" />
</g>
<g style="fill:#000000; fill-opacity:0.0; 
stroke:#000000; stroke-width:39.3701; stroke-opacity:1; 
stroke-linecap:round; stroke-linejoin:round;">
</g>
<g style="fill:#000000; fill-opacity:0.0; 
stroke:#000000; stroke-width:59.0551; stroke-opacity:1; 
stroke-linecap:round; stroke-linejoin:round;">
<path d="M82677 4724
L82677 3937
" />
</g>
<g style="fill:#000000; fill-opacity:0.0; 
stroke:#000000; stroke-width:39.3701; stroke-opacity:1; 
stroke-linecap:round; stroke-linejoin:round;">
</g>
<g style="fill:#000000; fill-opacity:0.0; 
stroke:#000000; stroke-width:59.0551; stroke-opacity:1; 
stroke-linecap:round; stroke-linejoin:round;">
<path d="M102362 4724
L102362 3937
" />
</g>
<g style="fill:#000000; fill-opacity:0.0; 
stroke:#000000; stroke-width:39.3701; stroke-opacity:1; 
stroke-linecap:round; stroke-linejoin:round;">
</g>
<g style="fill:#000000; fill-opacity:0.0; 
stroke:#000000; stroke-width:59.0551; stroke-opacity:1; 
stroke-linecap:round; stroke-linejoin:round;">
<path d="M14199 4562
L13906 4562
" />
<path d="M14052 4562
L14052 4050
L14004 4123
L13955 4172
L13906 4196
" />
</g>
<g style="fill:#000000; fill-opacity:0.0; 
stroke:#000000; stroke-width:39.3701; stroke-opacity:1; 
stroke-linecap:round; stroke-linejoin:round;">
</g>
<g style="fill:#000000; fill-opacity:0.0; 
stroke:#000000; stroke-width:59.0551; stroke-opacity:1; 
stroke-linecap:round; stroke-linejoin:round;">
<path d="M33591 4099
L33615 4074
L33664 4050
L33786 4050
L33835 4074
L33859 4099
L33884 4147
L33884 4196
L33859 4269
L33567 4562
L33884 4562
" />
</g>
<g style="fill:#000000; fill-opacity:0.0; 
stroke:#000000; stroke-width:39.3701; stroke-opacity:1; 
stroke-linecap:round; stroke-linejoin:round;">
</g>
<g style="fill:#000000; fill-opacity:0.0; 
stroke:#000000; stroke-width:59.0551; stroke-opacity:1; 
stroke-linecap:round; stroke-linejoin:round;">
<path d="M53252 4050
L53569 4050
L53398 4245
L53471 4245
L53520 4269
L53544 4294
L53569 4342
L53569 4464
L53544 4513
L53520 4537
L53471 4562
L53325 4562
L53276 4537
L53252 4513
" />
</g>
<g style="fill:#000000; fill-opacity:0.0; 
stroke:#000000; stroke-width:39.3701; stroke-opacity:1; 
stroke-linecap:round; stroke-linejoin:round;">
</g>
<g style="fill:#000000; fill-opacity:0.0; 
stroke:#000000; stroke-width:59.0551; stroke-opacity:1; 
stroke-linecap:round; stroke-linejoin:round;">
<path d="M73205 4221
L73205 4562
" />
<path d="M73083 4026
L72961 4391
L73278 4391
" />
</g>
<g style="fill:#000000; fill-opacity:0.0; 
stroke:#000000; stroke-width:39.3701; stroke-opacity:1; 
stroke-linecap:round; stroke-linejoin:round;">
</g>
<g style="fill:#000000; fill-opacity:0.0; 
stroke:#000000; stroke-width:59.0551; stroke-opacity:1; 
stroke-linecap:round; stroke-linejoin:round;">
<path d="M92914 4050
L92671 4050
L92646 4294
L92671 4269
L92719 4245
L92841 4245
L92890 4269
L92914 4294
L92939 4342
L92939 4464
L92914 4513
L92890 4537
L92841 4562
L92719 4562
L92671 4537
L92646 4513
" />
</g>
<g style="fill:#000000; fill-opacity:0.0; 
stroke:#000000; stroke-width:39.3701; stroke-opacity:1; 
stroke-linecap:round; stroke-linejoin:round;">
</g>
<g style="fill:#000000; fill-opacity:0.0; 
stroke:#000000; stroke-width:59.0551; stroke-opacity:1; 
stroke-linecap:round; stroke-linejoin:round;">
<path d="M112575 4050
L112477 4050
L112429 4074
L112404 4099
L112356 4172
L112331 4269
L112331 4464
L112356 4513
L112380 4537
L112429 4562
L112526 4562
L112575 4537
L112599 4513
L112624 4464
L112624 4342
L112599 4294
L112575 4269
L112526 4245
L112429 4245
L112380 4269
L112356 4294
L112331 4342
" />
</g>
<g style="fill:#000000; fill-opacity:0.0; 
stroke:#000000; stroke-width:39.3701; stroke-opacity:1; 
stroke-linecap:round; stroke-linejoin:round;">
</g>
<g style="fill:#000000; fill-opacity:0.0; 
stroke:#000000; stroke-width:59.0551; stroke-opacity:1; 
stroke-linecap:round; stroke-linejoin:round;">
<path d="M23622 77955
L23622 78742
" />
</g>
<g style="fill:#000000; fill-opacity:0.0; 
stroke:#000000; stroke-width:39.3701; stroke-opacity:1; 
stroke-linecap:round; stroke-linejoin:round;">
</g>
<g style="fill:#000000; fill-opacity:0.0; 
stroke:#000000; stroke-width:59.0551; stroke-opacity:1; 
stroke-linecap:round; stroke-linejoin:round;">
<path d="M43307 77955
L43307 78742
" />
</g>
<g style="fill:#000000; fill-opacity:0.0; 
stroke:#000000; stroke-width:39.3701; stroke-opacity:1; 
stroke-linecap:round; stroke-linejoin:round;">
</g>
<g style="fill:#000000; fill-opacity:0.0; 
stroke:#000000; stroke-width:59.0551; stroke-opacity:1; 
stroke-linecap:round; stroke-linejoin:round;">
<path d="M62992 77955
L62992 78742
" />
</g>
<g style="fill:#000000; fill-opacity:0.0; 
stroke:#000000; stroke-width:39.3701; stroke-opacity:1; 
stroke-linecap:round; stroke-linejoin:round;">
</g>
<g style="fill:#000000; fill-opacity:0.0; 
stroke:#000000; stroke-width:59.0551; stroke-opacity:1; 
stroke-linecap:round; stroke-linejoin:round;">
<path d="M82677 77955
L82677 78742
" />
</g>
<g style="fill:#000000; fill-opacity:0.0; 
stroke:#000000; stroke-width:39.3701; stroke-opacity:1; 
stroke-linecap:round; stroke-linejoin:round;">
</g>
<g style="fill:#000000; fill-opacity:0.0; 
stroke:#000000; stroke-width:59.0551; stroke-opacity:1; 
stroke-linecap:round; stroke-linejoin:round;">
<path d="M102362 77955
L102362 78742
" />
</g>
<g style="fill:#000000; fill-opacity:0.0; 
stroke:#000000; stroke-width:39.3701; stroke-opacity:1; 
stroke-linecap:round; stroke-linejoin:round;">
</g>
<g style="fill:#000000; fill-opacity:0.0; 
stroke:#000000; stroke-width:59.0551; stroke-opacity:1; 
stroke-linecap:round; stroke-linejoin:round;">
<path d="M14199 78580
L13906 78580
" />
<path d="M14052 78580
L14052 78069
L14004 78142
L13955 78190
L13906 78215
" />
</g>
<g style="fill:#000000; fill-opacity:0.0; 
stroke:#000000; stroke-width:39.3701; stroke-opacity:1; 
stroke-linecap:round; stroke-linejoin:round;">
</g>
<g style="fill:#000000; fill-opacity:0.0; 
stroke:#000000; stroke-width:59.0551; stroke-opacity:1; 
stroke-linecap:round; stroke-linejoin:round;">
<path d="M33591 78117
L33615 78093
L33664 78069
L33786 78069
L33835 78093
L33859 78117
L33884 78166
L33884 78215
L33859 78288
L33567 78580
L33884 78580
" />
</g>
<g style="fill:#000000; fill-opacity:0.0; 
stroke:#000000; stroke-width:39.3701; stroke-opacity:1; 
stroke-linecap:round; stroke-linejoin:round;">
</g>
<g style="fill:#000000; fill-opacity:0.0; 
stroke:#000000; stroke-width:59.0551; stroke-opacity:1; 
stroke-linecap:round; stroke-linejoin:round;">
<path d="M53252 78069
L53569 78069
L53398 78263
L53471 78263
L53520 78288
L53544 78312
L53569 78361
L53569 78483
L53544 78532
L53520 78556
L53471 78580
L53325 78580
L53276 78556
L53252 78532
" />
</g>
<g style="fill:#000000; fill-opacity:0.0; 
stroke:#000000; stroke-width:39.3701; stroke-opacity:1; 
stroke-linecap:round; stroke-linejoin:round;">
</g>
<g style="fill:#000000; fill-opacity:0.0; 
stroke:#000000; stroke-width:59.0551; stroke-opacity:1; 
stroke-linecap:round; stroke-linejoin:round;">
<path d="M73205 78239
L73205 78580
" />
<path d="M73083 78044
L72961 78410
L73278 78410
" />
</g>
<g style="fill:#000000; fill-opacity:0.0; 
stroke:#000000; stroke-width:39.3701; stroke-opacity:1; 
stroke-linecap:round; stroke-linejoin:round;">
</g>
<g style="fill:#000000; fill-opacity:0.0; 
stroke:#000000; stroke-width:59.0551; stroke-opacity:1; 
stroke-linecap:round; stroke-linejoin:round;">
<path d="M92914 78069
L92671 78069
L92646 78312
L92671 78288
L92719 78263
L92841 78263
L92890 78288
L92914 78312
L92939 78361
L92939 78483
L92914 78532
L92890 78556
L92841 78580
L92719 78580
L92671 78556
L92646 78532
" />
</g>
<g style="fill:#000000; fill-opacity:0.0; 
stroke:#000000; stroke-width:39.3701; stroke-opacity:1; 
stroke-linecap:round; stroke-linejoin:round;">
</g>
<g style="fill:#000000; fill-opacity:0.0; 
stroke:#000000; stroke-width:59.0551; stroke-opacity:1; 
stroke-linecap:round; stroke-linejoin:round;">
<path d="M112575 78069
L112477 78069
L112429 78093
L112404 78117
L112356 78190
L112331 78288
L112331 78483
L112356 78532
L112380 78556
L112429 78580
L112526 78580
L112575 78556
L112599 78532
L112624 78483
L112624 78361
L112599 78312
L112575 78288
L112526 78263
L112429 78263
L112380 78288
L112356 78312
L112331 78361
" />
</g>
<g style="fill:#000000; fill-opacity:0.0; 
stroke:#000000; stroke-width:39.3701; stroke-opacity:1; 
stroke-linecap:round; stroke-linejoin:round;">
</g>
<g style="fill:#000000; fill-opacity:0.0; 
stroke:#000000; stroke-width:59.0551; stroke-opacity:1; 
stroke-linecap:round; stroke-linejoin:round;">
<path d="M3937 23622
L4724 23622
" />
</g>
<g style="fill:#000000; fill-opacity:0.0; 
stroke:#000000; stroke-width:39.3701; stroke-opacity:1; 
stroke-linecap:round; stroke-linejoin:round;">
</g>
<g style="fill:#000000; fill-opacity:0.0; 
stroke:#000000; stroke-width:59.0551; stroke-opacity:1; 
stroke-linecap:round; stroke-linejoin:round;">
<path d="M3937 43307
L4724 43307
" />
</g>
<g style="fill:#000000; fill-opacity:0.0; 
stroke:#000000; stroke-width:39.3701; stroke-opacity:1; 
stroke-linecap:round; stroke-linejoin:round;">
</g>
<g style="fill:#000000; fill-opacity:0.0; 
stroke:#000000; stroke-width:59.0551; stroke-opacity:1; 
stroke-linecap:round; stroke-linejoin:round;">
<path d="M3937 62992
L4724 62992
" />
</g>
<g style="fill:#000000; fill-opacity:0.0; 
stroke:#000000; stroke-width:39.3701; stroke-opacity:1; 
stroke-linecap:round; stroke-linejoin:round;">
</g>
<g style="fill:#000000; fill-opacity:0.0; 
stroke:#000000; stroke-width:59.0551; stroke-opacity:1; 
stroke-linecap:round; stroke-linejoin:round;">
<path d="M4208 13864
L4452 13864
" />
<path d="M4160 14011
L4330 13499
L4501 14011
" />
</g>
<g style="fill:#000000; fill-opacity:0.0; 
stroke:#000000; stroke-width:39.3701; stroke-opacity:1; 
stroke-linecap:round; stroke-linejoin:round;">
</g>
<g style="fill:#000000; fill-opacity:0.0; 
stroke:#000000; stroke-width:59.0551; stroke-opacity:1; 
stroke-linecap:round; stroke-linejoin:round;">
<path d="M4367 33428
L4440 33452
L4464 33476
L4489 33525
L4489 33598
L4464 33647
L4440 33671
L4391 33696
L4196 33696
L4196 33184
L4367 33184
L4416 33208
L4440 33233
L4464 33281
L4464 33330
L4440 33379
L4416 33403
L4367 33428
L4196 33428
" />
</g>
<g style="fill:#000000; fill-opacity:0.0; 
stroke:#000000; stroke-width:39.3701; stroke-opacity:1; 
stroke-linecap:round; stroke-linejoin:round;">
</g>
<g style="fill:#000000; fill-opacity:0.0; 
stroke:#000000; stroke-width:59.0551; stroke-opacity:1; 
stroke-linecap:round; stroke-linejoin:round;">
<path d="M4489 53332
L4464 53356
L4391 53381
L4342 53381
L4269 53356
L4221 53308
L4196 53259
L4172 53161
L4172 53088
L4196 52991
L4221 52942
L4269 52893
L4342 52869
L4391 52869
L4464 52893
L4489 52918
" />
</g>
<g style="fill:#000000; fill-opacity:0.0; 
stroke:#000000; stroke-width:39.3701; stroke-opacity:1; 
stroke-linecap:round; stroke-linejoin:round;">
</g>
<g style="fill:#000000; fill-opacity:0.0; 
stroke:#000000; stroke-width:59.0551; stroke-opacity:1; 
stroke-linecap:round; stroke-linejoin:round;">
<path d="M4196 73066
L4196 72554
L4318 72554
L4391 72578
L4440 72627
L4464 72676
L4489 72773
L4489 72846
L4464 72944
L4440 72993
L4391 73041
L4318 73066
L4196 73066
" />
</g>
<g style="fill:#000000; fill-opacity:0.0; 
stroke:#000000; stroke-width:39.3701; stroke-opacity:1; 
stroke-linecap:round; stroke-linejoin:round;">
</g>
<g style="fill:#000000; fill-opacity:0.0; 
stroke:#000000; stroke-width:59.0551; stroke-opacity:1; 
stroke-linecap:round; stroke-linejoin:round;">
<path d="M112992 23622
L112205 23622
" />
</g>
<g style="fill:#000000; fill-opacity:0.0; 
stroke:#000000; stroke-width:39.3701; stroke-opacity:1; 
stroke-linecap:round; stroke-linejoin:round;">
</g>
<g style="fill:#000000; fill-opacity:0.0; 
stroke:#000000; stroke-width:59.0551; stroke-opacity:1; 
stroke-linecap:round; stroke-linejoin:round;">
<path d="M112992 43307
L112205 43307
" />
</g>
<g style="fill:#000000; fill-opacity:0.0; 
stroke:#000000; stroke-width:39.3701; stroke-opacity:1; 
stroke-linecap:round; stroke-linejoin:round;">
</g>
<g style="fill:#000000; fill-opacity:0.0; 
stroke:#000000; stroke-width:59.0551; stroke-opacity:1; 
stroke-linecap:round; stroke-linejoin:round;">
<path d="M112992 62992
L112205 62992
" />
</g>
<g style="fill:#000000; fill-opacity:0.0; 
stroke:#000000; stroke-width:39.3701; stroke-opacity:1; 
stroke-linecap:round; stroke-linejoin:round;">
</g>
<g style="fill:#000000; fill-opacity:0.0; 
stroke:#000000; stroke-width:59.0551; stroke-opacity:1; 
stroke-linecap:round; stroke-linejoin:round;">
<path d="M112477 13864
L112721 13864
" />
<path d="M112428 14011
L112599 13499
L112769 14011
" />
</g>
<g style="fill:#000000; fill-opacity:0.0; 
stroke:#000000; stroke-width:39.3701; stroke-opacity:1; 
stroke-linecap:round; stroke-linejoin:round;">
</g>
<g style="fill:#000000; fill-opacity:0.0; 
stroke:#000000; stroke-width:59.0551; stroke-opacity:1; 
stroke-linecap:round; stroke-linejoin:round;">
<path d="M112635 33428
L112708 33452
L112733 33476
L112757 33525
L112757 33598
L112733 33647
L112708 33671
L112660 33696
L112465 33696
L112465 33184
L112635 33184
L112684 33208
L112708 33233
L112733 33281
L112733 33330
L112708 33379
L112684 33403
L112635 33428
L112465 33428
" />
</g>
<g style="fill:#000000; fill-opacity:0.0; 
stroke:#000000; stroke-width:39.3701; stroke-opacity:1; 
stroke-linecap:round; stroke-linejoin:round;">
</g>
<g style="fill:#000000; fill-opacity:0.0; 
stroke:#000000; stroke-width:59.0551; stroke-opacity:1; 
stroke-linecap:round; stroke-linejoin:round;">
<path d="M112757 53332
L112733 53356
L112660 53381
L112611 53381
L112538 53356
L112489 53308
L112465 53259
L112440 53161
L112440 53088
L112465 52991
L112489 52942
L112538 52893
L112611 52869
L112660 52869
L112733 52893
L112757 52918
" />
</g>
<g style="fill:#000000; fill-opacity:0.0; 
stroke:#000000; stroke-width:39.3701; stroke-opacity:1; 
stroke-linecap:round; stroke-linejoin:round;">
</g>
<g style="fill:#000000; fill-opacity:0.0; 
stroke:#000000; stroke-width:59.0551; stroke-opacity:1; 
stroke-linecap:round; stroke-linejoin:round;">
<path d="M112465 73066
L112465 72554
L112587 72554
L112660 72578
L112708 72627
L112733 72676
L112757 72773
L112757 72846
L112733 72944
L112708 72993
L112660 73041
L112587 73066
L112465 73066
" />
</g>
<g style="fill:#000000; fill-opacity:0.0; 
stroke:#000000; stroke-width:39.3701; stroke-opacity:1; 
stroke-linecap:round; stroke-linejoin:round;">
</g>
<g style="fill:#000000; fill-opacity:0.0; 
stroke:#000000; stroke-width:59.0551; stroke-opacity:1; 
stroke-linecap:round; stroke-linejoin:round;">
<path d="M78911 76293
L78911 75703
L79051 75703
L79136 75731
L79192 75787
L79220 75843
L79248 75956
L79248 76040
L79220 76153
L79192 76209
L79136 76265
L79051 76293
L78911 76293
" />
<path d="M79754 76293
L79754 75984
L79726 75928
L79670 75899
L79557 75899
L79501 75928
" />
<path d="M79754 76265
L79698 76293
L79557 76293
L79501 76265
L79473 76209
L79473 76153
L79501 76096
L79557 76068
L79698 76068
L79754 76040
" />
<path d="M79951 75899
L80176 75899
" />
<path d="M80036 75703
L80036 76209
L80064 76265
L80120 76293
L80176 76293
" />
<path d="M80598 76265
L80542 76293
L80429 76293
L80373 76265
L80345 76209
L80345 75984
L80373 75928
L80429 75899
L80542 75899
L80598 75928
L80626 75984
L80626 76040
L80345 76096
" />
<path d="M80879 76237
L80907 76265
L80879 76293
L80851 76265
L80879 76237
L80879 76293
" />
<path d="M80879 75928
L80907 75956
L80879 75984
L80851 75956
L80879 75928
L80879 75984
" />
</g>
<g style="fill:#000000; fill-opacity:0.0; 
stroke:#000000; stroke-width:39.3701; stroke-opacity:1; 
stroke-linecap:round; stroke-linejoin:round;">
</g>
<g style="fill:#000000; fill-opacity:0.0; 
stroke:#000000; stroke-width:59.0551; stroke-opacity:1; 
stroke-linecap:round; stroke-linejoin:round;">
<path d="M69685 76577
L112205 76577
" />
</g>
<g style="fill:#000000; fill-opacity:0.0; 
stroke:#000000; stroke-width:39.3701; stroke-opacity:1; 
stroke-linecap:round; stroke-linejoin:round;">
</g>
<g style="fill:#000000; fill-opacity:0.0; 
stroke:#000000; stroke-width:59.0551; stroke-opacity:1; 
stroke-linecap:round; stroke-linejoin:round;">
<path d="M70249 77395
L70249 76805
" />
<path d="M70587 77395
L70334 77058
" />
<path d="M70587 76805
L70249 77142
" />
<path d="M70840 77395
L70840 77002
" />
<path d="M70840 76805
L70812 76833
L70840 76861
L70868 76833
L70840 76805
L70840 76861
" />
<path d="M71458 77339
L71430 77367
L71346 77395
L71290 77395
L71205 77367
L71149 77311
L71121 77255
L71093 77142
L71093 77058
L71121 76946
L71149 76889
L71205 76833
L71290 76805
L71346 76805
L71430 76833
L71458 76861
" />
<path d="M71965 77395
L71965 77086
L71937 77030
L71880 77002
L71768 77002
L71712 77030
" />
<path d="M71965 77367
L71908 77395
L71768 77395
L71712 77367
L71683 77311
L71683 77255
L71712 77199
L71768 77171
L71908 77171
L71965 77142
" />
<path d="M72499 77395
L72499 76805
" />
<path d="M72499 77367
L72443 77395
L72330 77395
L72274 77367
L72246 77339
L72218 77283
L72218 77114
L72246 77058
L72274 77030
L72330 77002
L72443 77002
L72499 77030
" />
<path d="M73230 77086
L73427 77086
" />
<path d="M73511 77395
L73230 77395
L73230 76805
L73511 76805
" />
<path d="M73764 77339
L73793 77367
L73764 77395
L73736 77367
L73764 77339
L73764 77395
" />
<path d="M74046 77395
L74046 76805
L74186 76805
L74271 76833
L74327 76889
L74355 76946
L74383 77058
L74383 77142
L74355 77255
L74327 77311
L74271 77367
L74186 77395
L74046 77395
" />
<path d="M74636 77339
L74664 77367
L74636 77395
L74608 77367
L74636 77339
L74636 77395
" />
<path d="M74889 77227
L75171 77227
" />
<path d="M74833 77395
L75030 76805
L75227 77395
" />
<path d="M75424 77339
L75452 77367
L75424 77395
L75395 77367
L75424 77339
L75424 77395
" />
<path d="M76605 77395
L76605 76805
" />
<path d="M76661 77171
L76830 77395
" />
<path d="M76830 77002
L76605 77227
" />
<path d="M77083 77395
L77083 77002
" />
<path d="M77083 76805
L77055 76833
L77083 76861
L77111 76833
L77083 76805
L77083 76861
" />
<path d="M77617 77367
L77561 77395
L77448 77395
L77392 77367
L77364 77339
L77336 77283
L77336 77114
L77364 77058
L77392 77030
L77448 77002
L77561 77002
L77617 77030
" />
<path d="M78123 77395
L78123 77086
L78095 77030
L78039 77002
L77926 77002
L77870 77030
" />
<path d="M78123 77367
L78067 77395
L77926 77395
L77870 77367
L77842 77311
L77842 77255
L77870 77199
L77926 77171
L78067 77171
L78123 77142
" />
<path d="M78658 77395
L78658 76805
" />
<path d="M78658 77367
L78601 77395
L78489 77395
L78433 77367
L78404 77339
L78376 77283
L78376 77114
L78404 77058
L78433 77030
L78489 77002
L78601 77002
L78658 77030
" />
<path d="M79389 77002
L79389 77395
" />
<path d="M79389 77058
L79417 77030
L79473 77002
L79557 77002
L79614 77030
L79642 77086
L79642 77395
" />
<path d="M80007 77395
L79951 77367
L79923 77339
L79895 77283
L79895 77114
L79923 77058
L79951 77030
L80007 77002
L80092 77002
L80148 77030
L80176 77058
L80204 77114
L80204 77283
L80176 77339
L80148 77367
L80092 77395
L80007 77395
" />
<path d="M80457 77171
L80907 77171
" />
<path d="M81132 77002
L81273 77395
L81413 77002
" />
<path d="M81892 77367
L81835 77395
L81723 77395
L81667 77367
L81638 77339
L81610 77283
L81610 77114
L81638 77058
L81667 77030
L81723 77002
L81835 77002
L81892 77030
" />
<path d="M82117 77367
L82173 77395
L82285 77395
L82341 77367
L82370 77311
L82370 77283
L82341 77227
L82285 77199
L82201 77199
L82145 77171
L82117 77114
L82117 77086
L82145 77030
L82201 77002
L82285 77002
L82341 77030
" />
<path d="M82623 77171
L83073 77171
" />
<path d="M83269 77002
L83494 77002
" />
<path d="M83354 77395
L83354 76889
L83382 76833
L83438 76805
L83494 76805
" />
<path d="M83776 77395
L83719 77367
L83691 77339
L83663 77283
L83663 77114
L83691 77058
L83719 77030
L83776 77002
L83860 77002
L83916 77030
L83944 77058
L83973 77114
L83973 77283
L83944 77339
L83916 77367
L83860 77395
L83776 77395
" />
<path d="M84479 77002
L84479 77395
" />
<path d="M84226 77002
L84226 77311
L84254 77367
L84310 77395
L84394 77395
L84451 77367
L84479 77339
" />
<path d="M84760 77002
L84760 77395
" />
<path d="M84760 77058
L84788 77030
L84844 77002
L84929 77002
L84985 77030
L85013 77086
L85013 77395
" />
<path d="M85547 77395
L85547 76805
" />
<path d="M85547 77367
L85491 77395
L85379 77395
L85322 77367
L85294 77339
L85266 77283
L85266 77114
L85294 77058
L85322 77030
L85379 77002
L85491 77002
L85547 77030
" />
<path d="M85829 77171
L86278 77171
" />
<path d="M86588 77395
L86700 77395
L86757 77367
L86785 77339
L86841 77255
L86869 77142
L86869 76917
L86841 76861
L86813 76833
L86757 76805
L86644 76805
L86588 76833
L86560 76861
L86532 76917
L86532 77058
L86560 77114
L86588 77142
L86644 77171
L86757 77171
L86813 77142
L86841 77114
L86869 77058
" />
<path d="M87375 77002
L87375 77395
" />
<path d="M87235 76777
L87094 77199
L87460 77199
" />
<path d="M87938 77002
L87938 77395
" />
<path d="M87797 76777
L87656 77199
L88022 77199
" />
<path d="M88191 76805
L88584 76805
L88331 77395
" />
<path d="M89119 77395
L88781 77395
" />
<path d="M88950 77395
L88950 76805
L88894 76889
L88838 76946
L88781 76974
" />
<path d="M89456 77058
L89400 77030
L89372 77002
L89344 76946
L89344 76917
L89372 76861
L89400 76833
L89456 76805
L89569 76805
L89625 76833
L89653 76861
L89681 76917
L89681 76946
L89653 77002
L89625 77030
L89569 77058
L89456 77058
L89400 77086
L89372 77114
L89344 77171
L89344 77283
L89372 77339
L89400 77367
L89456 77395
L89569 77395
L89625 77367
L89653 77339
L89681 77283
L89681 77171
L89653 77114
L89625 77086
L89569 77058
" />
<path d="M90244 77395
L89906 77395
" />
<path d="M90075 77395
L90075 76805
L90019 76889
L89962 76946
L89906 76974
" />
<path d="M90454 76644
L90919 76644
" />
<path d="M90778 76805
L90497 76805
L90469 77086
L90497 77058
L90553 77030
L90694 77030
L90750 77058
L90778 77086
L90806 77142
L90806 77283
L90778 77339
L90750 77367
L90694 77395
L90553 77395
L90497 77367
L90469 77339
" />
<path d="M90919 76644
L91481 76644
" />
<path d="M91087 77395
L91200 77395
L91256 77367
L91284 77339
L91340 77255
L91368 77142
L91368 76917
L91340 76861
L91312 76833
L91256 76805
L91144 76805
L91087 76833
L91059 76861
L91031 76917
L91031 77058
L91059 77114
L91087 77142
L91144 77171
L91256 77171
L91312 77142
L91340 77114
L91368 77058
" />
<path d="M91875 77002
L91875 77395
" />
<path d="M91622 77002
L91622 77311
L91650 77367
L91706 77395
L91790 77395
L91847 77367
L91875 77339
" />
<path d="M92156 77395
L92156 76805
" />
<path d="M92156 77030
L92212 77002
L92325 77002
L92381 77030
L92409 77058
L92437 77114
L92437 77283
L92409 77339
L92381 77367
L92325 77395
L92212 77395
L92156 77367
" />
<path d="M92943 77002
L92943 77395
" />
<path d="M92690 77002
L92690 77311
L92718 77367
L92775 77395
L92859 77395
L92915 77367
L92943 77339
" />
<path d="M93224 77002
L93224 77395
" />
<path d="M93224 77058
L93253 77030
L93309 77002
L93393 77002
L93449 77030
L93478 77086
L93478 77395
" />
<path d="M93674 77002
L93899 77002
" />
<path d="M93759 76805
L93759 77311
L93787 77367
L93843 77395
L93899 77395
" />
<path d="M94349 77002
L94349 77395
" />
<path d="M94096 77002
L94096 77311
L94124 77367
L94181 77395
L94265 77395
L94321 77367
L94349 77339
" />
<path d="M94940 77395
L94602 77395
" />
<path d="M94771 77395
L94771 76805
L94715 76889
L94659 76946
L94602 76974
" />
<path d="M95446 77002
L95446 77395
" />
<path d="M95305 76777
L95165 77199
L95530 77199
" />
<path d="M95755 77339
L95784 77367
L95755 77395
L95727 77367
L95755 77339
L95755 77395
" />
<path d="M96149 76805
L96205 76805
L96262 76833
L96290 76861
L96318 76917
L96346 77030
L96346 77171
L96318 77283
L96290 77339
L96262 77367
L96205 77395
L96149 77395
L96093 77367
L96065 77339
L96037 77283
L96009 77171
L96009 77030
L96037 76917
L96065 76861
L96093 76833
L96149 76805
" />
<path d="M96852 77002
L96852 77395
" />
<path d="M96712 76777
L96571 77199
L96937 77199
" />
<path d="M97162 77339
L97190 77367
L97162 77395
L97133 77367
L97162 77339
L97162 77395
" />
<path d="M97752 77395
L97415 77395
" />
<path d="M97583 77395
L97583 76805
L97527 76889
L97471 76946
L97415 76974
" />
</g>
<g style="fill:#000000; fill-opacity:0.0; 
stroke:#000000; stroke-width:39.3701; stroke-opacity:1; 
stroke-linecap:round; stroke-linejoin:round;">
</g>
<g style="fill:#000000; fill-opacity:0.0; 
stroke:#000000; stroke-width:59.0551; stroke-opacity:1; 
stroke-linecap:round; stroke-linejoin:round;">
<path d="M69685 75396
L112205 75396
" />
</g>
<g style="fill:#000000; fill-opacity:0.0; 
stroke:#000000; stroke-width:39.3701; stroke-opacity:1; 
stroke-linecap:round; stroke-linejoin:round;">
</g>
<g style="fill:#000000; fill-opacity:0.0; 
stroke:#000000; stroke-width:118.11; stroke-opacity:1; 
stroke-linecap:round; stroke-linejoin:round;">
<path d="M104099 76293
L103902 76012
" />
<path d="M103761 76293
L103761 75703
L103986 75703
L104042 75731
L104070 75759
L104099 75815
L104099 75899
L104070 75956
L104042 75984
L103986 76012
L103761 76012
" />
<path d="M104577 76265
L104520 76293
L104408 76293
L104352 76265
L104323 76209
L104323 75984
L104352 75928
L104408 75899
L104520 75899
L104577 75928
L104605 75984
L104605 76040
L104323 76096
" />
<path d="M104802 75899
L104942 76293
L105083 75899
" />
<path d="M105308 76237
L105336 76265
L105308 76293
L105280 76265
L105308 76237
L105308 76293
" />
<path d="M105308 75928
L105336 75956
L105308 75984
L105280 75956
L105308 75928
L105308 75984
" />
</g>
<g style="fill:#000000; fill-opacity:0.0; 
stroke:#000000; stroke-width:39.3701; stroke-opacity:1; 
stroke-linecap:round; stroke-linejoin:round;">
</g>
<g style="fill:#000000; fill-opacity:0.0; 
stroke:#000000; stroke-width:59.0551; stroke-opacity:1; 
stroke-linecap:round; stroke-linejoin:round;">
<path d="M70221 76265
L70305 76293
L70446 76293
L70502 76265
L70530 76237
L70559 76181
L70559 76124
L70530 76068
L70502 76040
L70446 76012
L70334 75984
L70277 75956
L70249 75928
L70221 75871
L70221 75815
L70249 75759
L70277 75731
L70334 75703
L70474 75703
L70559 75731
" />
<path d="M70812 76293
L70812 75899
" />
<path d="M70812 75703
L70784 75731
L70812 75759
L70840 75731
L70812 75703
L70812 75759
" />
<path d="M71037 75899
L71346 75899
L71037 76293
L71346 76293
" />
<path d="M71796 76265
L71740 76293
L71627 76293
L71571 76265
L71543 76209
L71543 75984
L71571 75928
L71627 75899
L71740 75899
L71796 75928
L71824 75984
L71824 76040
L71543 76096
" />
<path d="M72077 76237
L72105 76265
L72077 76293
L72049 76265
L72077 76237
L72077 76293
" />
<path d="M72077 75928
L72105 75956
L72077 75984
L72049 75956
L72077 75928
L72077 75984
" />
<path d="M72780 76124
L73061 76124
" />
<path d="M72724 76293
L72921 75703
L73118 76293
" />
<path d="M73568 75899
L73568 76293
" />
<path d="M73427 75674
L73286 76096
L73652 76096
" />
</g>
<g style="fill:#000000; fill-opacity:0.0; 
stroke:#000000; stroke-width:39.3701; stroke-opacity:1; 
stroke-linecap:round; stroke-linejoin:round;">
</g>
<g style="fill:#000000; fill-opacity:0.0; 
stroke:#000000; stroke-width:59.0551; stroke-opacity:1; 
stroke-linecap:round; stroke-linejoin:round;">
<path d="M103714 77395
L103714 76805
" />
<path d="M104248 77395
L104248 76805
" />
<path d="M104248 77367
L104192 77395
L104079 77395
L104023 77367
L103995 77339
L103967 77283
L103967 77114
L103995 77058
L104023 77030
L104079 77002
L104192 77002
L104248 77030
" />
<path d="M104529 77339
L104557 77367
L104529 77395
L104501 77367
L104529 77339
L104529 77395
" />
<path d="M104529 77030
L104557 77058
L104529 77086
L104501 77058
L104529 77030
L104529 77086
" />
<path d="M105570 77395
L105232 77395
" />
<path d="M105401 77395
L105401 76805
L105345 76889
L105289 76946
L105232 76974
" />
<path d="M106245 76777
L105739 77536
" />
<path d="M106751 77395
L106413 77395
" />
<path d="M106582 77395
L106582 76805
L106526 76889
L106470 76946
L106413 76974
" />
</g>
<g style="fill:#000000; fill-opacity:0.0; 
stroke:#000000; stroke-width:39.3701; stroke-opacity:1; 
stroke-linecap:round; stroke-linejoin:round;">
</g>
<g style="fill:#000000; fill-opacity:0.0; 
stroke:#000000; stroke-width:59.0551; stroke-opacity:1; 
stroke-linecap:round; stroke-linejoin:round;">
<path d="M69685 73821
L112205 73821
" />
</g>
<g style="fill:#000000; fill-opacity:0.0; 
stroke:#000000; stroke-width:39.3701; stroke-opacity:1; 
stroke-linecap:round; stroke-linejoin:round;">
</g>
<g style="fill:#000000; fill-opacity:0.0; 
stroke:#000000; stroke-width:157.48; stroke-opacity:1; 
stroke-linecap:round; stroke-linejoin:round;">
<path d="M70360 74099
L70810 74099
" />
<path d="M70486 74886
L70585 74099
" />
<path d="M70974 74886
L71039 74361
" />
<path d="M71072 74099
L71030 74136
L71063 74174
L71105 74136
L71072 74099
L71063 74174
" />
<path d="M71302 74361
L71602 74361
" />
<path d="M71447 74099
L71363 74774
L71391 74849
L71461 74886
L71536 74886
" />
<path d="M71911 74886
L71841 74849
L71813 74774
L71897 74099
" />
<path d="M72516 74849
L72436 74886
L72286 74886
L72216 74849
L72187 74774
L72225 74474
L72272 74399
L72352 74361
L72501 74361
L72572 74399
L72600 74474
L72591 74549
L72206 74624
" />
<path d="M72895 74811
L72928 74849
L72886 74886
L72853 74849
L72895 74811
L72886 74886
" />
<path d="M72947 74399
L72980 74436
L72937 74474
L72905 74436
L72947 74399
L72937 74474
" />
</g>
<g style="fill:#000000; fill-opacity:0.0; 
stroke:#000000; stroke-width:39.3701; stroke-opacity:1; 
stroke-linecap:round; stroke-linejoin:round;">
</g>
<g style="fill:#000000; fill-opacity:0.0; 
stroke:#000000; stroke-width:59.0551; stroke-opacity:1; 
stroke-linecap:round; stroke-linejoin:round;">
<path d="M70446 73070
L70249 73070
" />
<path d="M70249 73380
L70249 72789
L70530 72789
" />
<path d="M70755 73380
L70755 72986
" />
<path d="M70755 72789
L70727 72817
L70755 72845
L70784 72817
L70755 72789
L70755 72845
" />
<path d="M71121 73380
L71065 73352
L71037 73295
L71037 72789
" />
<path d="M71571 73352
L71515 73380
L71402 73380
L71346 73352
L71318 73295
L71318 73070
L71346 73014
L71402 72986
L71515 72986
L71571 73014
L71599 73070
L71599 73127
L71318 73183
" />
<path d="M71852 73323
L71880 73352
L71852 73380
L71824 73352
L71852 73323
L71852 73380
" />
<path d="M71852 73014
L71880 73042
L71852 73070
L71824 73042
L71852 73014
L71852 73070
" />
<path d="M72668 73323
L72668 73577
" />
<path d="M72499 72986
L72527 72986
L72555 73014
L72668 73323
L72808 72986
" />
<path d="M73343 72817
L73286 72789
L73202 72789
L73118 72817
L73061 72874
L73033 72930
L73005 73042
L73005 73127
L73033 73239
L73061 73295
L73118 73352
L73202 73380
L73258 73380
L73343 73352
L73371 73323
L73371 73127
L73258 73127
" />
<path d="M73877 73380
L73877 73070
L73849 73014
L73793 72986
L73680 72986
L73624 73014
" />
<path d="M73877 73352
L73821 73380
L73680 73380
L73624 73352
L73596 73295
L73596 73239
L73624 73183
L73680 73155
L73821 73155
L73877 73127
" />
<path d="M74411 72986
L74411 73380
" />
<path d="M74158 72986
L74158 73295
L74186 73352
L74242 73380
L74327 73380
L74383 73352
L74411 73323
" />
<path d="M74946 72986
L74946 73464
L74917 73520
L74889 73548
L74833 73577
L74749 73577
L74692 73548
" />
<path d="M74946 73352
L74889 73380
L74777 73380
L74721 73352
L74692 73323
L74664 73267
L74664 73099
L74692 73042
L74721 73014
L74777 72986
L74889 72986
L74946 73014
" />
<path d="M75452 73352
L75395 73380
L75283 73380
L75227 73352
L75199 73295
L75199 73070
L75227 73014
L75283 72986
L75395 72986
L75452 73014
L75480 73070
L75480 73127
L75199 73183
" />
<path d="M75733 73323
L75761 73352
L75733 73380
L75705 73352
L75733 73323
L75733 73380
" />
<path d="M76014 73380
L76014 72789
" />
<path d="M76070 73155
L76239 73380
" />
<path d="M76239 72986
L76014 73211
" />
<path d="M76492 73380
L76492 72986
" />
<path d="M76492 72789
L76464 72817
L76492 72845
L76520 72817
L76492 72789
L76492 72845
" />
<path d="M77027 73352
L76970 73380
L76858 73380
L76802 73352
L76773 73323
L76745 73267
L76745 73099
L76773 73042
L76802 73014
L76858 72986
L76970 72986
L77027 73014
" />
<path d="M77533 73380
L77533 73070
L77505 73014
L77448 72986
L77336 72986
L77280 73014
" />
<path d="M77533 73352
L77476 73380
L77336 73380
L77280 73352
L77251 73295
L77251 73239
L77280 73183
L77336 73155
L77476 73155
L77533 73127
" />
<path d="M78067 73380
L78067 72789
" />
<path d="M78067 73352
L78011 73380
L77898 73380
L77842 73352
L77814 73323
L77786 73267
L77786 73099
L77814 73042
L77842 73014
L77898 72986
L78011 72986
L78067 73014
" />
<path d="M78208 73436
L78658 73436
" />
<path d="M78798 72986
L78798 73577
" />
<path d="M78798 73014
L78854 72986
L78967 72986
L79023 73014
L79051 73042
L79079 73099
L79079 73267
L79051 73323
L79023 73352
L78967 73380
L78854 73380
L78798 73352
" />
<path d="M79586 73352
L79529 73380
L79417 73380
L79361 73352
L79332 73323
L79304 73267
L79304 73099
L79332 73042
L79361 73014
L79417 72986
L79529 72986
L79586 73014
" />
<path d="M79839 73380
L79839 72789
" />
<path d="M79839 73014
L79895 72986
L80007 72986
L80064 73014
L80092 73042
L80120 73099
L80120 73267
L80092 73323
L80064 73352
L80007 73380
L79895 73380
L79839 73352
" />
</g>
<g style="fill:#000000; fill-opacity:0.0; 
stroke:#000000; stroke-width:39.3701; stroke-opacity:1; 
stroke-linecap:round; stroke-linejoin:round;">
</g>
<g style="fill:#000000; fill-opacity:0.0; 
stroke:#000000; stroke-width:59.0551; stroke-opacity:1; 
stroke-linecap:round; stroke-linejoin:round;">
<path d="M69685 71459
L112205 71459
" />
</g>
<g style="fill:#000000; fill-opacity:0.0; 
stroke:#000000; stroke-width:39.3701; stroke-opacity:1; 
stroke-linecap:round; stroke-linejoin:round;">
</g>
<g style="fill:#000000; fill-opacity:0.0; 
stroke:#000000; stroke-width:59.0551; stroke-opacity:1; 
stroke-linecap:round; stroke-linejoin:round;">
<path d="M70221 72289
L70305 72317
L70446 72317
L70502 72289
L70530 72260
L70559 72204
L70559 72148
L70530 72092
L70502 72064
L70446 72036
L70334 72007
L70277 71979
L70249 71951
L70221 71895
L70221 71839
L70249 71782
L70277 71754
L70334 71726
L70474 71726
L70559 71754
" />
<path d="M70812 72317
L70812 71726
" />
<path d="M71065 72317
L71065 72007
L71037 71951
L70980 71923
L70896 71923
L70840 71951
L70812 71979
" />
<path d="M71571 72289
L71515 72317
L71402 72317
L71346 72289
L71318 72232
L71318 72007
L71346 71951
L71402 71923
L71515 71923
L71571 71951
L71599 72007
L71599 72064
L71318 72120
" />
<path d="M72077 72289
L72021 72317
L71908 72317
L71852 72289
L71824 72232
L71824 72007
L71852 71951
L71908 71923
L72021 71923
L72077 71951
L72105 72007
L72105 72064
L71824 72120
" />
<path d="M72274 71923
L72499 71923
" />
<path d="M72358 71726
L72358 72232
L72386 72289
L72443 72317
L72499 72317
" />
<path d="M72696 72260
L72724 72289
L72696 72317
L72668 72289
L72696 72260
L72696 72317
" />
<path d="M72696 71951
L72724 71979
L72696 72007
L72668 71979
L72696 71951
L72696 72007
" />
</g>
<g style="fill:#000000; fill-opacity:0.0; 
stroke:#000000; stroke-width:39.3701; stroke-opacity:1; 
stroke-linecap:round; stroke-linejoin:round;">
</g>
<g style="fill:#000000; fill-opacity:0.0; 
stroke:#000000; stroke-width:59.0551; stroke-opacity:1; 
stroke-linecap:round; stroke-linejoin:round;">
<path d="M77559 75396
L77559 76577
" />
</g>
<g style="fill:#000000; fill-opacity:0.0; 
stroke:#000000; stroke-width:39.3701; stroke-opacity:1; 
stroke-linecap:round; stroke-linejoin:round;">
</g>
<g style="fill:#000000; fill-opacity:0.0; 
stroke:#000000; stroke-width:59.0551; stroke-opacity:1; 
stroke-linecap:round; stroke-linejoin:round;">
<path d="M102756 75396
L102756 77955
" />
</g>
<g style="fill:#000000; fill-opacity:0.0; 
stroke:#000000; stroke-width:0; stroke-opacity:1; 
stroke-linecap:round; stroke-linejoin:round;">
</g>
<g style="fill:#000000; fill-opacity:1.0; 
stroke:#000000; stroke-width:0; stroke-opacity:1; 
stroke-linecap:round; stroke-linejoin:round;">
<polyline style="fill-rule:evenodd;"
points="30925,41141
29350,41141
29350,39566
30925,39566
30925,41141
" /> 
<polyline style="fill-rule:evenodd;"
points="31137,42637
29137,42637
29137,41850
31137,41850
31137,42637
" /> 
<polyline style="fill-rule:evenodd;"
points="31137,38858
29137,38858
29137,38070
31137,38070
31137,38858
" /> 
<polyline style="fill-rule:evenodd;"
points="30885,34015
30885,33700
31476,33700
31476,34015
30885,34015
" /> 
<polyline style="fill-rule:evenodd;"
points="30885,35000
30885,34685
31476,34685
31476,35000
30885,35000
" /> 
<polyline style="fill-rule:evenodd;"
points="30885,35984
30885,35669
31476,35669
31476,35984
30885,35984
" /> 
<polyline style="fill-rule:evenodd;"
points="28366,34015
28366,33700
28956,33700
28956,34015
28366,34015
" /> 
<polyline style="fill-rule:evenodd;"
points="28366,35000
28366,34685
28956,34685
28956,35000
28366,35000
" /> 
<polyline style="fill-rule:evenodd;"
points="28366,35984
28366,35669
28956,35669
28956,35984
28366,35984
" /> 
<polyline style="fill-rule:evenodd;"
points="35610,34015
35610,33700
36200,33700
36200,34015
35610,34015
" /> 
<polyline style="fill-rule:evenodd;"
points="35610,35000
35610,34685
36200,34685
36200,35000
35610,35000
" /> 
<polyline style="fill-rule:evenodd;"
points="35610,35984
35610,35669
36200,35669
36200,35984
35610,35984
" /> 
<polyline style="fill-rule:evenodd;"
points="33090,34015
33090,33700
33681,33700
33681,34015
33090,34015
" /> 
<polyline style="fill-rule:evenodd;"
points="33090,35000
33090,34685
33681,34685
33681,35000
33090,35000
" /> 
<polyline style="fill-rule:evenodd;"
points="33090,35984
33090,35669
33681,35669
33681,35984
33090,35984
" /> 
<polyline style="fill-rule:evenodd;"
points="40334,34015
40334,33700
40925,33700
40925,34015
40334,34015
" /> 
<polyline style="fill-rule:evenodd;"
points="40334,35000
40334,34685
40925,34685
40925,35000
40334,35000
" /> 
<polyline style="fill-rule:evenodd;"
points="40334,35984
40334,35669
40925,35669
40925,35984
40334,35984
" /> 
<polyline style="fill-rule:evenodd;"
points="37814,34015
37814,33700
38405,33700
38405,34015
37814,34015
" /> 
<polyline style="fill-rule:evenodd;"
points="37814,35000
37814,34685
38405,34685
38405,35000
37814,35000
" /> 
<polyline style="fill-rule:evenodd;"
points="37814,35984
37814,35669
38405,35669
38405,35984
37814,35984
" /> 
<polyline style="fill-rule:evenodd;"
points="45059,34015
45059,33700
45649,33700
45649,34015
45059,34015
" /> 
<polyline style="fill-rule:evenodd;"
points="45059,35000
45059,34685
45649,34685
45649,35000
45059,35000
" /> 
<polyline style="fill-rule:evenodd;"
points="45059,35984
45059,35669
45649,35669
45649,35984
45059,35984
" /> 
<polyline style="fill-rule:evenodd;"
points="42539,34015
42539,33700
43129,33700
43129,34015
42539,34015
" /> 
<polyline style="fill-rule:evenodd;"
points="42539,35000
42539,34685
43129,34685
43129,35000
42539,35000
" /> 
<polyline style="fill-rule:evenodd;"
points="42539,35984
42539,35669
43129,35669
43129,35984
42539,35984
" /> 
<polyline style="fill-rule:evenodd;"
points="49783,34015
49783,33700
50374,33700
50374,34015
49783,34015
" /> 
<polyline style="fill-rule:evenodd;"
points="49783,35000
49783,34685
50374,34685
50374,35000
49783,35000
" /> 
<polyline style="fill-rule:evenodd;"
points="49783,35984
49783,35669
50374,35669
50374,35984
49783,35984
" /> 
<polyline style="fill-rule:evenodd;"
points="47263,34015
47263,33700
47854,33700
47854,34015
47263,34015
" /> 
<polyline style="fill-rule:evenodd;"
points="47263,35000
47263,34685
47854,34685
47854,35000
47263,35000
" /> 
<polyline style="fill-rule:evenodd;"
points="47263,35984
47263,35669
47854,35669
47854,35984
47263,35984
" /> 
<polyline style="fill-rule:evenodd;"
points="29409,27263
29409,26673
30433,26673
30433,27263
29409,27263
" /> 
<polyline style="fill-rule:evenodd;"
points="29409,28444
29409,27854
30433,27854
30433,28444
29409,28444
" /> 
<polyline style="fill-rule:evenodd;"
points="44881,51181
44881,49606
46456,49606
46456,51181
44881,51181
" /> 
<polyline style="fill-rule:evenodd;"
points="32283,51181
32283,49606
33858,49606
33858,51181
32283,51181
" /> 
<polyline style="fill-rule:evenodd;"
points="31137,43976
29137,43976
29137,43188
31137,43188
31137,43976
" /> 
<polyline style="fill-rule:evenodd;"
points="31137,47755
29137,47755
29137,46968
31137,46968
31137,47755
" /> 
<polyline style="fill-rule:evenodd;"
points="30925,46259
29350,46259
29350,44685
30925,44685
30925,46259
" /> 
<polyline style="fill-rule:evenodd;"
points="35862,43976
33862,43976
33862,43188
35862,43188
35862,43976
" /> 
<polyline style="fill-rule:evenodd;"
points="35862,47755
33862,47755
33862,46968
35862,46968
35862,47755
" /> 
<polyline style="fill-rule:evenodd;"
points="35649,46259
34074,46259
34074,44685
35649,44685
35649,46259
" /> 
<polyline style="fill-rule:evenodd;"
points="35862,38858
33862,38858
33862,38070
35862,38070
35862,38858
" /> 
<polyline style="fill-rule:evenodd;"
points="35862,42637
33862,42637
33862,41850
35862,41850
35862,42637
" /> 
<polyline style="fill-rule:evenodd;"
points="35649,41141
34074,41141
34074,39566
35649,39566
35649,41141
" /> 
<polyline style="fill-rule:evenodd;"
points="40586,43976
38586,43976
38586,43188
40586,43188
40586,43976
" /> 
<polyline style="fill-rule:evenodd;"
points="40586,47755
38586,47755
38586,46968
40586,46968
40586,47755
" /> 
<polyline style="fill-rule:evenodd;"
points="40374,46259
38799,46259
38799,44685
40374,44685
40374,46259
" /> 
<polyline style="fill-rule:evenodd;"
points="40586,38858
38586,38858
38586,38070
40586,38070
40586,38858
" /> 
<polyline style="fill-rule:evenodd;"
points="40586,42637
38586,42637
38586,41850
40586,41850
40586,42637
" /> 
<polyline style="fill-rule:evenodd;"
points="40374,41141
38799,41141
38799,39566
40374,39566
40374,41141
" /> 
<polyline style="fill-rule:evenodd;"
points="45311,43976
43311,43976
43311,43188
45311,43188
45311,43976
" /> 
<polyline style="fill-rule:evenodd;"
points="45311,47755
43311,47755
43311,46968
45311,46968
45311,47755
" /> 
<polyline style="fill-rule:evenodd;"
points="45098,46259
43523,46259
43523,44685
45098,44685
45098,46259
" /> 
<polyline style="fill-rule:evenodd;"
points="45098,41141
43523,41141
43523,39566
45098,39566
45098,41141
" /> 
<polyline style="fill-rule:evenodd;"
points="45311,42637
43311,42637
43311,41850
45311,41850
45311,42637
" /> 
<polyline style="fill-rule:evenodd;"
points="45311,38858
43311,38858
43311,38070
45311,38070
45311,38858
" /> 
<polyline style="fill-rule:evenodd;"
points="50035,43976
48035,43976
48035,43188
50035,43188
50035,43976
" /> 
<polyline style="fill-rule:evenodd;"
points="50035,47755
48035,47755
48035,46968
50035,46968
50035,47755
" /> 
<polyline style="fill-rule:evenodd;"
points="49822,46259
48248,46259
48248,44685
49822,44685
49822,46259
" /> 
<polyline style="fill-rule:evenodd;"
points="49822,41141
48248,41141
48248,39566
49822,39566
49822,41141
" /> 
<polyline style="fill-rule:evenodd;"
points="50035,42637
48035,42637
48035,41850
50035,41850
50035,42637
" /> 
<polyline style="fill-rule:evenodd;"
points="50035,38858
48035,38858
48035,38070
50035,38070
50035,38858
" /> 
<polyline style="fill-rule:evenodd;"
points="34133,27263
34133,26673
35157,26673
35157,27263
34133,27263
" /> 
<polyline style="fill-rule:evenodd;"
points="34133,28444
34133,27854
35157,27854
35157,28444
34133,28444
" /> 
<polyline style="fill-rule:evenodd;"
points="38858,28444
38858,27854
39881,27854
39881,28444
38858,28444
" /> 
<polyline style="fill-rule:evenodd;"
points="38858,27263
38858,26673
39881,26673
39881,27263
38858,27263
" /> 
<polyline style="fill-rule:evenodd;"
points="43582,28444
43582,27854
44606,27854
44606,28444
43582,28444
" /> 
<polyline style="fill-rule:evenodd;"
points="43582,27263
43582,26673
44606,26673
44606,27263
43582,27263
" /> 
<polyline style="fill-rule:evenodd;"
points="48307,27263
48307,26673
49330,26673
49330,27263
48307,27263
" /> 
<polyline style="fill-rule:evenodd;"
points="48307,28444
48307,27854
49330,27854
49330,28444
48307,28444
" /> 
<polyline style="fill-rule:evenodd;"
points="29586,30787
29586,31181
29074,31181
29074,30787
29586,30787
" /> 
<polyline style="fill-rule:evenodd;"
points="29586,29842
29586,30236
29074,30236
29074,29842
29586,29842
" /> 
<polyline style="fill-rule:evenodd;"
points="30767,31318
30767,31712
30255,31712
30255,31318
30767,31318
" /> 
<polyline style="fill-rule:evenodd;"
points="30767,32263
30767,32657
30255,32657
30255,32263
30767,32263
" /> 
<polyline style="fill-rule:evenodd;"
points="30767,29842
30767,30236
30255,30236
30255,29842
30767,29842
" /> 
<polyline style="fill-rule:evenodd;"
points="30767,30787
30767,31181
30255,31181
30255,30787
30767,30787
" /> 
<polyline style="fill-rule:evenodd;"
points="34311,31318
34311,31712
33799,31712
33799,31318
34311,31318
" /> 
<polyline style="fill-rule:evenodd;"
points="34311,32263
34311,32657
33799,32657
33799,32263
34311,32263
" /> 
<polyline style="fill-rule:evenodd;"
points="29586,31318
29586,31712
29074,31712
29074,31318
29586,31318
" /> 
<polyline style="fill-rule:evenodd;"
points="29586,32263
29586,32657
29074,32657
29074,32263
29586,32263
" /> 
<polyline style="fill-rule:evenodd;"
points="34311,29842
34311,30236
33799,30236
33799,29842
34311,29842
" /> 
<polyline style="fill-rule:evenodd;"
points="34311,30787
34311,31181
33799,31181
33799,30787
34311,30787
" /> 
<polyline style="fill-rule:evenodd;"
points="35492,32263
35492,32657
34980,32657
34980,32263
35492,32263
" /> 
<polyline style="fill-rule:evenodd;"
points="35492,31318
35492,31712
34980,31712
34980,31318
35492,31318
" /> 
<polyline style="fill-rule:evenodd;"
points="35492,29842
35492,30236
34980,30236
34980,29842
35492,29842
" /> 
<polyline style="fill-rule:evenodd;"
points="35492,30787
35492,31181
34980,31181
34980,30787
35492,30787
" /> 
<polyline style="fill-rule:evenodd;"
points="39035,32263
39035,32657
38523,32657
38523,32263
39035,32263
" /> 
<polyline style="fill-rule:evenodd;"
points="39035,31318
39035,31712
38523,31712
38523,31318
39035,31318
" /> 
<polyline style="fill-rule:evenodd;"
points="39035,29842
39035,30236
38523,30236
38523,29842
39035,29842
" /> 
<polyline style="fill-rule:evenodd;"
points="39035,30787
39035,31181
38523,31181
38523,30787
39035,30787
" /> 
<polyline style="fill-rule:evenodd;"
points="40216,31318
40216,31712
39704,31712
39704,31318
40216,31318
" /> 
<polyline style="fill-rule:evenodd;"
points="40216,32263
40216,32657
39704,32657
39704,32263
40216,32263
" /> 
<polyline style="fill-rule:evenodd;"
points="40216,30787
40216,31181
39704,31181
39704,30787
40216,30787
" /> 
<polyline style="fill-rule:evenodd;"
points="40216,29842
40216,30236
39704,30236
39704,29842
40216,29842
" /> 
<polyline style="fill-rule:evenodd;"
points="43759,32263
43759,32657
43248,32657
43248,32263
43759,32263
" /> 
<polyline style="fill-rule:evenodd;"
points="43759,31318
43759,31712
43248,31712
43248,31318
43759,31318
" /> 
<polyline style="fill-rule:evenodd;"
points="43759,29842
43759,30236
43248,30236
43248,29842
43759,29842
" /> 
<polyline style="fill-rule:evenodd;"
points="43759,30787
43759,31181
43248,31181
43248,30787
43759,30787
" /> 
<polyline style="fill-rule:evenodd;"
points="44940,31318
44940,31712
44429,31712
44429,31318
44940,31318
" /> 
<polyline style="fill-rule:evenodd;"
points="44940,32263
44940,32657
44429,32657
44429,32263
44940,32263
" /> 
<polyline style="fill-rule:evenodd;"
points="44940,30787
44940,31181
44429,31181
44429,30787
44940,30787
" /> 
<polyline style="fill-rule:evenodd;"
points="44940,29842
44940,30236
44429,30236
44429,29842
44940,29842
" /> 
<polyline style="fill-rule:evenodd;"
points="48484,31318
48484,31712
47972,31712
47972,31318
48484,31318
" /> 
<polyline style="fill-rule:evenodd;"
points="48484,32263
48484,32657
47972,32657
47972,32263
48484,32263
" /> 
<polyline style="fill-rule:evenodd;"
points="48484,30787
48484,31181
47972,31181
47972,30787
48484,30787
" /> 
<polyline style="fill-rule:evenodd;"
points="48484,29842
48484,30236
47972,30236
47972,29842
48484,29842
" /> 
<polyline style="fill-rule:evenodd;"
points="49665,31318
49665,31712
49153,31712
49153,31318
49665,31318
" /> 
<polyline style="fill-rule:evenodd;"
points="49665,32263
49665,32657
49153,32657
49153,32263
49665,32263
" /> 
<polyline style="fill-rule:evenodd;"
points="49665,29842
49665,30236
49153,30236
49153,29842
49665,29842
" /> 
<polyline style="fill-rule:evenodd;"
points="49665,30787
49665,31181
49153,31181
49153,30787
49665,30787
" /> 
</g>
<g style="fill:#000000; fill-opacity:1.0; 
stroke:#000000; stroke-width:39.3701; stroke-opacity:1; 
stroke-linecap:round; stroke-linejoin:round;">
</g>
<g style="fill:#000000; fill-opacity:0.0; 
stroke:#000000; stroke-width:39.3701; stroke-opacity:1; 
stroke-linecap:round; stroke-linejoin:round;">
<path d="M47913 31909
L48543 31909
" />
<path d="M47913 32066
L48543 32066
" />
<path d="M48543.3 32066.9 A78.7402 78.7402 0.0 0 0 48622 31988.2 " />
<path d="M48622 31988.2 A78.7402 78.7402 0.0 0 0 48543.3 31909.4 " />
<path d="M47834.6 31988.2 A78.7402 78.7402 0.0 0 0 47913.4 32066.9 " />
<path d="M47913.4 31909.4 A78.7402 78.7402 0.0 0 0 47834.6 31988.2 " />
<path d="M49094.5 31909.4 A78.7402 78.7402 0.0 0 0 49015.7 31988.2 " />
<path d="M49015.7 31988.2 A78.7402 78.7402 0.0 0 0 49094.5 32066.9 " />
<path d="M49803.1 31988.2 A78.7402 78.7402 0.0 0 0 49724.4 31909.4 " />
<path d="M49724.4 32066.9 A78.7402 78.7402 0.0 0 0 49803.1 31988.2 " />
<path d="M49094 32066
L49724 32066
" />
<path d="M49094 31909
L49724 31909
" />
<path d="M49094 30433
L49724 30433
" />
<path d="M49094 30590
L49724 30590
" />
<path d="M49724.4 30590.6 A78.7402 78.7402 0.0 0 0 49803.1 30511.8 " />
<path d="M49803.1 30511.8 A78.7402 78.7402 0.0 0 0 49724.4 30433.1 " />
<path d="M49015.7 30511.8 A78.7402 78.7402 0.0 0 0 49094.5 30590.6 " />
<path d="M49094.5 30433.1 A78.7402 78.7402 0.0 0 0 49015.7 30511.8 " />
<path d="M47913.4 30433.1 A78.7402 78.7402 0.0 0 0 47834.6 30511.8 " />
<path d="M47834.6 30511.8 A78.7402 78.7402 0.0 0 0 47913.4 30590.6 " />
<path d="M48622 30511.8 A78.7402 78.7402 0.0 0 0 48543.3 30433.1 " />
<path d="M48543.3 30590.6 A78.7402 78.7402 0.0 0 0 48622 30511.8 " />
<path d="M47913 30590
L48543 30590
" />
<path d="M47913 30433
L48543 30433
" />
<path d="M43188 30433
L43818 30433
" />
<path d="M43188 30590
L43818 30590
" />
<path d="M43818.9 30590.6 A78.7402 78.7402 0.0 0 0 43897.6 30511.8 " />
<path d="M43897.6 30511.8 A78.7402 78.7402 0.0 0 0 43818.9 30433.1 " />
<path d="M43110.2 30511.8 A78.7402 78.7402 0.0 0 0 43189 30590.6 " />
<path d="M43189 30433.1 A78.7402 78.7402 0.0 0 0 43110.2 30511.8 " />
<path d="M44370.1 30433.1 A78.7402 78.7402 0.0 0 0 44291.3 30511.8 " />
<path d="M44291.3 30511.8 A78.7402 78.7402 0.0 0 0 44370.1 30590.6 " />
<path d="M45078.7 30511.8 A78.7402 78.7402 0.0 0 0 45000 30433.1 " />
<path d="M45000 30590.6 A78.7402 78.7402 0.0 0 0 45078.7 30511.8 " />
<path d="M44370 30590
L45000 30590
" />
<path d="M44370 30433
L45000 30433
" />
<path d="M44370 31909
L45000 31909
" />
<path d="M44370 32066
L45000 32066
" />
<path d="M45000 32066.9 A78.7402 78.7402 0.0 0 0 45078.7 31988.2 " />
<path d="M45078.7 31988.2 A78.7402 78.7402 0.0 0 0 45000 31909.4 " />
<path d="M44291.3 31988.2 A78.7402 78.7402 0.0 0 0 44370.1 32066.9 " />
<path d="M44370.1 31909.4 A78.7402 78.7402 0.0 0 0 44291.3 31988.2 " />
<path d="M43189 31909.4 A78.7402 78.7402 0.0 0 0 43110.2 31988.2 " />
<path d="M43110.2 31988.2 A78.7402 78.7402 0.0 0 0 43189 32066.9 " />
<path d="M43897.6 31988.2 A78.7402 78.7402 0.0 0 0 43818.9 31909.4 " />
<path d="M43818.9 32066.9 A78.7402 78.7402 0.0 0 0 43897.6 31988.2 " />
<path d="M43188 32066
L43818 32066
" />
<path d="M43188 31909
L43818 31909
" />
<path d="M38464 31909
L39094 31909
" />
<path d="M38464 32066
L39094 32066
" />
<path d="M39094.5 32066.9 A78.7402 78.7402 0.0 0 0 39173.2 31988.2 " />
<path d="M39173.2 31988.2 A78.7402 78.7402 0.0 0 0 39094.5 31909.4 " />
<path d="M38385.8 31988.2 A78.7402 78.7402 0.0 0 0 38464.6 32066.9 " />
<path d="M38464.6 31909.4 A78.7402 78.7402 0.0 0 0 38385.8 31988.2 " />
<path d="M39645.7 31909.4 A78.7402 78.7402 0.0 0 0 39566.9 31988.2 " />
<path d="M39566.9 31988.2 A78.7402 78.7402 0.0 0 0 39645.7 32066.9 " />
<path d="M40354.3 31988.2 A78.7402 78.7402 0.0 0 0 40275.6 31909.4 " />
<path d="M40275.6 32066.9 A78.7402 78.7402 0.0 0 0 40354.3 31988.2 " />
<path d="M39645 32066
L40275 32066
" />
<path d="M39645 31909
L40275 31909
" />
<path d="M39645 30433
L40275 30433
" />
<path d="M39645 30590
L40275 30590
" />
<path d="M40275.6 30590.6 A78.7402 78.7402 0.0 0 0 40354.3 30511.8 " />
<path d="M40354.3 30511.8 A78.7402 78.7402 0.0 0 0 40275.6 30433.1 " />
<path d="M39566.9 30511.8 A78.7402 78.7402 0.0 0 0 39645.7 30590.6 " />
<path d="M39645.7 30433.1 A78.7402 78.7402 0.0 0 0 39566.9 30511.8 " />
<path d="M38464.6 30433.1 A78.7402 78.7402 0.0 0 0 38385.8 30511.8 " />
<path d="M38385.8 30511.8 A78.7402 78.7402 0.0 0 0 38464.6 30590.6 " />
<path d="M39173.2 30511.8 A78.7402 78.7402 0.0 0 0 39094.5 30433.1 " />
<path d="M39094.5 30590.6 A78.7402 78.7402 0.0 0 0 39173.2 30511.8 " />
<path d="M38464 30590
L39094 30590
" />
<path d="M38464 30433
L39094 30433
" />
<path d="M33740 30433
L34370 30433
" />
<path d="M33740 30590
L34370 30590
" />
<path d="M34370.1 30590.6 A78.7402 78.7402 0.0 0 0 34448.8 30511.8 " />
<path d="M34448.8 30511.8 A78.7402 78.7402 0.0 0 0 34370.1 30433.1 " />
<path d="M33661.4 30511.8 A78.7402 78.7402 0.0 0 0 33740.2 30590.6 " />
<path d="M33740.2 30433.1 A78.7402 78.7402 0.0 0 0 33661.4 30511.8 " />
<path d="M34921.3 30433.1 A78.7402 78.7402 0.0 0 0 34842.5 30511.8 " />
<path d="M34842.5 30511.8 A78.7402 78.7402 0.0 0 0 34921.3 30590.6 " />
<path d="M35629.9 30511.8 A78.7402 78.7402 0.0 0 0 35551.2 30433.1 " />
<path d="M35551.2 30590.6 A78.7402 78.7402 0.0 0 0 35629.9 30511.8 " />
<path d="M34921 30590
L35551 30590
" />
<path d="M34921 30433
L35551 30433
" />
<path d="M34921 31909
L35551 31909
" />
<path d="M34921 32066
L35551 32066
" />
<path d="M35551.2 32066.9 A78.7402 78.7402 0.0 0 0 35629.9 31988.2 " />
<path d="M35629.9 31988.2 A78.7402 78.7402 0.0 0 0 35551.2 31909.4 " />
<path d="M34842.5 31988.2 A78.7402 78.7402 0.0 0 0 34921.3 32066.9 " />
<path d="M34921.3 31909.4 A78.7402 78.7402 0.0 0 0 34842.5 31988.2 " />
<path d="M33740.2 31909.4 A78.7402 78.7402 0.0 0 0 33661.4 31988.2 " />
<path d="M33661.4 31988.2 A78.7402 78.7402 0.0 0 0 33740.2 32066.9 " />
<path d="M34448.8 31988.2 A78.7402 78.7402 0.0 0 0 34370.1 31909.4 " />
<path d="M34370.1 32066.9 A78.7402 78.7402 0.0 0 0 34448.8 31988.2 " />
<path d="M33740 32066
L34370 32066
" />
<path d="M33740 31909
L34370 31909
" />
<path d="M29015 31909
L29645 31909
" />
<path d="M29015 32066
L29645 32066
" />
<path d="M29645.7 32066.9 A78.7402 78.7402 0.0 0 0 29724.4 31988.2 " />
<path d="M29724.4 31988.2 A78.7402 78.7402 0.0 0 0 29645.7 31909.4 " />
<path d="M28937 31988.2 A78.7402 78.7402 0.0 0 0 29015.7 32066.9 " />
<path d="M29015.7 31909.4 A78.7402 78.7402 0.0 0 0 28937 31988.2 " />
<path d="M30196.9 31909.4 A78.7402 78.7402 0.0 0 0 30118.1 31988.2 " />
<path d="M30118.1 31988.2 A78.7402 78.7402 0.0 0 0 30196.9 32066.9 " />
<path d="M30905.5 31988.2 A78.7402 78.7402 0.0 0 0 30826.8 31909.4 " />
<path d="M30826.8 32066.9 A78.7402 78.7402 0.0 0 0 30905.5 31988.2 " />
<path d="M30196 32066
L30826 32066
" />
<path d="M30196 31909
L30826 31909
" />
<path d="M30196 30433
L30826 30433
" />
<path d="M30196 30590
L30826 30590
" />
<path d="M30826.8 30590.6 A78.7402 78.7402 0.0 0 0 30905.5 30511.8 " />
<path d="M30905.5 30511.8 A78.7402 78.7402 0.0 0 0 30826.8 30433.1 " />
<path d="M30118.1 30511.8 A78.7402 78.7402 0.0 0 0 30196.9 30590.6 " />
<path d="M30196.9 30433.1 A78.7402 78.7402 0.0 0 0 30118.1 30511.8 " />
<path d="M29015.7 30433.1 A78.7402 78.7402 0.0 0 0 28937 30511.8 " />
<path d="M28937 30511.8 A78.7402 78.7402 0.0 0 0 29015.7 30590.6 " />
<path d="M29724.4 30511.8 A78.7402 78.7402 0.0 0 0 29645.7 30433.1 " />
<path d="M29645.7 30590.6 A78.7402 78.7402 0.0 0 0 29724.4 30511.8 " />
<path d="M29015 30590
L29645 30590
" />
<path d="M29015 30433
L29645 30433
" />
<path d="M32757 48427
L31812 48427
" />
<path d="M37482 48427
L36537 48427
" />
<path d="M42206 48427
L41261 48427
" />
<path d="M28348 25395
L28348 25198
" />
<path d="M30890 25395
L31498 25395
" />
<path d="M30575 25855
L30575 25710
" />
<path d="M28955 25395
L28348 25395
" />
<path d="M29270 25855
L29270 25710
" />
<path d="M30667 26078
L31498 26908
" />
<path d="M29178 26078
L28348 26908
" />
<path d="M35614 25395
L36222 25395
" />
<path d="M35299 25855
L35299 25710
" />
<path d="M33680 25395
L30890 25395
" />
<path d="M33995 25855
L33995 25710
" />
<path d="M35392 26078
L36222 26908
" />
<path d="M33903 26078
L33072 26908
" />
<path d="M40339 25395
L40946 25395
" />
<path d="M40024 25855
L40024 25710
" />
<path d="M38404 25395
L35614 25395
" />
<path d="M38719 25855
L38719 25710
" />
<path d="M40116 26078
L40946 26908
" />
<path d="M38627 26078
L37797 26908
" />
<path d="M28348 26908
L28348 53545
" />
<path d="M44748 25855
L44748 25710
" />
<path d="M43129 25395
L40339 25395
" />
<path d="M43444 25855
L43444 25710
" />
<path d="M44841 26078
L45671 26908
" />
<path d="M43351 26078
L42521 26908
" />
<path d="M50395 25395
L50395 25198
" />
<path d="M49788 25395
L50395 25395
" />
<path d="M49473 25855
L49473 25710
" />
<path d="M47853 25395
L45063 25395
" />
<path d="M48168 25855
L48168 25710
" />
<path d="M31498 48112
L31498 26908
" />
<path d="M33072 48112
L33072 26908
" />
<path d="M36222 48112
L36222 26908
" />
<path d="M37797 48112
L37797 26908
" />
<path d="M40946 48112
L40946 26908
" />
<path d="M42521 48112
L42521 26908
" />
<path d="M49565 26078
L50395 26908
" />
<path d="M48076 26078
L47246 26908
" />
<path d="M46931 48427
L45986 48427
" />
<path d="M45671 48112
L45671 26908
" />
<path d="M47246 48112
L47246 26908
" />
<path d="M48820 23624
L29923 23624
" />
<path d="M50395 53545
L50395 26908
" />
<path d="M48820 55120
L29923 55120
" />
<path d="M32757.9 48427.2 A314.961 314.961 0.0 0 0 33072.8 48112.2 " />
<path d="M31498 48112.2 A314.961 314.961 0.0 0 0 31813 48427.2 " />
<path d="M37482.3 48427.2 A314.961 314.961 0.0 0 0 37797.2 48112.2 " />
<path d="M46931.1 48427.2 A314.961 314.961 0.0 0 0 47246.1 48112.2 " />
<path d="M48820.9 55120.1 A1574.8 1574.8 0.0 0 0 50395.7 53545.3 " />
<path d="M29270.9 25710.6 A314.961 314.961 0.0 0 0 28956 25395.7 " />
<path d="M29178.7 26078.5 A314.961 314.961 0.0 0 0 29270.9 25855.8 " />
<path d="M30575.5 25855.8 A314.961 314.961 0.0 0 0 30667.8 26078.5 " />
<path d="M30890.5 25395.7 A314.961 314.961 0.0 0 0 30575.5 25710.6 " />
<path d="M33995.3 25710.6 A314.961 314.961 0.0 0 0 33680.4 25395.7 " />
<path d="M33903.1 26078.5 A314.961 314.961 0.0 0 0 33995.3 25855.8 " />
<path d="M35299.9 25855.8 A314.961 314.961 0.0 0 0 35392.2 26078.5 " />
<path d="M35614.9 25395.7 A314.961 314.961 0.0 0 0 35299.9 25710.6 " />
<path d="M38719.7 25710.6 A314.961 314.961 0.0 0 0 38404.8 25395.7 " />
<path d="M38627.5 26078.5 A314.961 314.961 0.0 0 0 38719.7 25855.8 " />
<path d="M40024.4 25855.8 A314.961 314.961 0.0 0 0 40116.6 26078.5 " />
<path d="M40339.3 25395.7 A314.961 314.961 0.0 0 0 40024.4 25710.6 " />
<path d="M43444.2 25710.6 A314.961 314.961 0.0 0 0 43129.2 25395.7 " />
<path d="M43351.9 26078.5 A314.961 314.961 0.0 0 0 43444.2 25855.8 " />
<path d="M44748.8 25855.8 A314.961 314.961 0.0 0 0 44841 26078.5 " />
<path d="M45063.7 25395.7 A314.961 314.961 0.0 0 0 44748.8 25710.6 " />
<path d="M48168.6 25710.6 A314.961 314.961 0.0 0 0 47853.6 25395.7 " />
<path d="M48076.3 26078.5 A314.961 314.961 0.0 0 0 48168.6 25855.8 " />
<path d="M28348.4 53545.3 A1574.8 1574.8 0.0 0 0 29923.2 55120.1 " />
<path d="M49473.2 25855.8 A314.961 314.961 0.0 0 0 49565.4 26078.5 " />
<path d="M49788.1 25395.7 A314.961 314.961 0.0 0 0 49473.2 25710.6 " />
<path d="M29923.2 23624 A1574.8 1574.8 0.0 0 0 28348.4 25198.8 " />
<path d="M36222.4 48112.2 A314.961 314.961 0.0 0 0 36537.4 48427.2 " />
<path d="M50395.7 25198.8 A1574.8 1574.8 0.0 0 0 48820.9 23624 " />
<path d="M42206.7 48427.2 A314.961 314.961 0.0 0 0 42521.7 48112.2 " />
<circle cx="29923.2" cy="53545.3" r="787.402" /> 
<path d="M40946.9 48112.2 A314.961 314.961 0.0 0 0 41261.8 48427.2 " />
<circle cx="48820.9" cy="53545.3" r="787.402" /> 
<path d="M45671.3 48112.2 A314.961 314.961 0.0 0 0 45986.2 48427.2 " />
</g> 
</svg>
